{
.appVersion = "1057";
copyright = "Copyright 2017 Google Inc. All Rights Reserved.";
customParameters = (
{
name = glyphOrder;
value = (
.notdef,
NULL,
CR,
space,
uni00A0,
uniA78B,
uniA78C,
uniAA80,
uniAA81,
uniAA82,
uniAA83,
uniAA84,
uniAA85,
uniAA86,
uniAA87,
uniAA88,
uniAA89,
uniAA8A,
uniAA8B,
uniAA8C,
uniAA8D,
uniAA8E,
uniAA8F,
uniAA90,
uniAA91,
uniAA92,
uniAA93,
uniAA94,
uniAA95,
uniAA96,
uniAA97,
uniAA98,
uniAA99,
uniAA9A,
uniAA9B,
uniAA9C,
uniAA9D,
uniAA9E,
uniAA9F,
uniAAA0,
uniAAA1,
uniAAA2,
uniAAA3,
uniAAA4,
uniAAA5,
uniAAA6,
uniAAA7,
uniAAA8,
uniAAA9,
uniAAAA,
uniAAAB,
uniAAAC,
uniAAAD,
uniAAAE,
uniAAAF,
uniAAB0,
uniAAB1,
uniAAB2,
uniAAB3,
uniAAB4,
uniAAB5,
uniAAB6,
uniAAB7,
uniAAB8,
uniAAB9,
uniAABA,
uniAABB,
uniAABC,
uniAABD,
uniAABE,
uniAABF,
uniAAC0,
uniAAC1,
uniAAC2,
uniAADB,
uniAADC,
uniAADD,
uniAADE,
uniAADF,
uni200B,
uni200C,
uni200D,
uni25CC
);
},
{
name = description;
value = "Designed by Monotype design team.";
},
{
name = license;
value = "This Font Software is licensed under the SIL Open Font License, Version 1.1. This Font Software is distributed on an \"AS IS\" BASIS, WITHOUT WARRANTIES OR CONDITIONS OF ANY KIND, either express or implied. See the SIL Open Font License for the specific language, permissions and limitations governing your use of this Font Software.";
},
{
name = licenseURL;
value = "http://scripts.sil.org/OFL";
},
{
name = vendorID;
value = GOOG;
},
{
name = unicodeRanges;
value = (
0,
1,
29,
31,
45
);
},
{
name = trademark;
value = "Noto is a trademark of Google Inc.";
},
{
name = "Has WWS Names";
value = 1;
},
{
name = versionString;
value = "Version 2.000";
},
{
name = fsType;
value = (
);
},
{
name = codePageRanges;
value = (
"1252"
);
}
);
date = "2017-06-20 16:21:02 +0000";
designer = "Monotype Design Team";
designerURL = "http://www.monotype.com/studio";
disablesAutomaticAlignment = 1;
disablesNiceNames = 1;
familyName = "Noto Sans Tai Viet";
fontMaster = (
{
alignmentZones = (
"{1069, 15}",
"{714, 15}",

glyphs = (
{
glyphname = .notdef;
lastChange = "2017-09-11 14:36:03 +0000";
layers = (
{
layerId = UUID0;
paths = (
{
closed = 1;
nodes = (
"505 0 LINE",
"505 714 LINE",
"94 714 LINE",
"94 0 LINE"
);
},
{
closed = 1;
nodes = (
"145 663 LINE",
"454 663 LINE",
"454 51 LINE",
"145 51 LINE"
);
}
);
width = 600;
}
);
},
{
glyphname = uniA78B;
lastChange = "2017-09-11 14:36:03 +0000";
layers = (
{
layerId = UUID0;
paths = (
{
closed = 1;
nodes = (
"201 329 LINE",
"226 729 LINE",
"115 729 LINE",
"140 329 LINE"
);
}
);
width = 326;
}
);
note = uniA78C;
unicode = A78B;
},
{
glyphname = uniA78C;
lastChange = "2017-09-11 14:36:03 +0000";
layers = (
{
layerId = UUID0;
paths = (
{
closed = 1;
nodes = (
"201 471 LINE",
"226 729 LINE",
"115 729 LINE",
"140 471 LINE"
);
}
);
width = 326;
}
);
note = uniA78C;
unicode = A78C;
},
{
glyphname = uniAA80;
lastChange = "2017-09-11 14:36:03 +0000";
layers = (
{
layerId = UUID0;
paths = (
{
closed = 1;
nodes = (
"587 24 LINE",
"572 57 OFFCURVE",
"567 96 OFFCURVE",
"567 139 CURVE SMOOTH",
"567 204 OFFCURVE",
"573 276 OFFCURVE",
"573 341 CURVE SMOOTH",
"573 452 OFFCURVE",
"545 546 OFFCURVE",
"449 546 CURVE SMOOTH",
"355 546 OFFCURVE",
"258 427 OFFCURVE",
"213 320 CURVE",
"203 429 OFFCURVE",
"166 504 OFFCURVE",
"91 546 CURVE",
"59 502 LINE",
"122 466 OFFCURVE",
"127 380 OFFCURVE",
"127 298 CURVE SMOOTH",
"127 207 OFFCURVE",
"112 80 OFFCURVE",
"81 -2 CURVE",
"175 24 LINE",
"188 63 OFFCURVE",
"198 102 OFFCURVE",
"205 143 CURVE",
"268 350 OFFCURVE",
"373 478 OFFCURVE",
"437 478 CURVE SMOOTH",
"476 478 OFFCURVE",
"485 412 OFFCURVE",
"485 335 CURVE SMOOTH",
"485 250 OFFCURVE",
"479 181 OFFCURVE",
"479 124 CURVE SMOOTH",
"479 75 OFFCURVE",
"483 33 OFFCURVE",
"501 -5 CURVE"
);
}
);
width = 646;
}
);
unicode = AA80;
},
{
glyphname = uniAA81;
lastChange = "2017-09-11 14:36:03 +0000";
layers = (
{
layerId = UUID0;
paths = (
{
closed = 1;
nodes = (
"561 24 LINE",
"545 57 OFFCURVE",
"541 96 OFFCURVE",
"541 139 CURVE SMOOTH",
"541 204 OFFCURVE",
"547 276 OFFCURVE",
"547 341 CURVE SMOOTH",
"547 370 OFFCURVE",
"545 398 OFFCURVE",
"539 423 CURVE",
"604 466 OFFCURVE",
"663 499 OFFCURVE",
"706 515 CURVE",
"692 555 LINE",
"642 537 OFFCURVE",
"584 509 OFFCURVE",
"523 473 CURVE",
"501 517 OFFCURVE",
"461 546 OFFCURVE",
"392 546 CURVE SMOOTH",
"174 546 OFFCURVE",
"86 280 OFFCURVE",
"49 -2 CURVE",
"140 24 LINE",
"208 147 OFFCURVE",
"335 271 OFFCURVE",
"459 365 CURVE",
"459 335 LINE SMOOTH",
"459 250 OFFCURVE",
"453 181 OFFCURVE",
"453 124 CURVE SMOOTH",
"453 75 OFFCURVE",
"457 34 OFFCURVE",
"475 -4 CURVE"
);
},
{
closed = 1;
nodes = (
"186 318 OFFCURVE",
"250 478 OFFCURVE",
"384 478 CURVE SMOOTH",
"423 478 OFFCURVE",
"442 458 OFFCURVE",
"451 427 CURVE",
"348 357 OFFCURVE",
"242 267 OFFCURVE",
"157 162 CURVE"
);
}
);
width = 715;
}
);
unicode = AA81;
},
{
glyphname = uniAA82;
lastChange = "2017-09-11 14:36:03 +0000";
layers = (
{
layerId = UUID0;
paths = (
{
closed = 1;
nodes = (
"929 -186 OFFCURVE",
"971 -117 OFFCURVE",
"971 -51 CURVE SMOOTH",
"971 21 OFFCURVE",
"913 80 OFFCURVE",
"783 81 CURVE",
"791 264 OFFCURVE",
"847 532 OFFCURVE",
"959 646 CURVE",
"936 676 LINE",
"793 539 OFFCURVE",
"718 326 OFFCURVE",
"698 77 CURVE",
"638 71 OFFCURVE",
"599 59 OFFCURVE",
"527 59 CURVE SMOOTH",
"494 59 OFFCURVE",
"484 72 OFFCURVE",
"484 94 CURVE SMOOTH",
"484 170 OFFCURVE",
"531 326 OFFCURVE",
"531 425 CURVE SMOOTH",
"531 475 OFFCURVE",
"502 546 OFFCURVE",
"406 546 CURVE SMOOTH",
"214 546 OFFCURVE",
"87 313 OFFCURVE",
"49 -2 CURVE",
"145 24 LINE",
"175 229 OFFCURVE",
"210 478 OFFCURVE",
"386 478 CURVE SMOOTH",
"421 478 OFFCURVE",
"443 448 OFFCURVE",
"443 417 CURVE SMOOTH",
"443 299 OFFCURVE",
"396 172 OFFCURVE",
"396 96 CURVE SMOOTH",
"396 29 OFFCURVE",
"436 -10 OFFCURVE",
"511 -10 CURVE SMOOTH",
"632 -10 OFFCURVE",
"667 13 OFFCURVE",
"785 13 CURVE SMOOTH",
"858 13 OFFCURVE",
"898 -18 OFFCURVE",
"898 -59 CURVE SMOOTH",
"898 -124 OFFCURVE",
"842 -132 OFFCURVE",
"799 -132 CURVE SMOOTH",
"767 -132 OFFCURVE",
"728 -121 OFFCURVE",
"703 -103 CURVE",
"681 -134 LINE",
"711 -160 OFFCURVE",
"756 -186 OFFCURVE",
"808 -186 CURVE SMOOTH"
);
}
);
width = 1020;
}
);
unicode = AA82;
},
{
glyphname = uniAA83;
lastChange = "2017-09-11 14:36:03 +0000";
layers = (
{
layerId = UUID0;
paths = (
{
closed = 1;
nodes = (
"746 -224 OFFCURVE",
"1033 -24 OFFCURVE",
"1033 168 CURVE SMOOTH",
"1033 255 OFFCURVE",
"974 287 OFFCURVE",
"925 287 CURVE SMOOTH",
"916 287 OFFCURVE",
"905 286 OFFCURVE",
"895 284 CURVE",
"915 316 OFFCURVE",
"929 354 OFFCURVE",
"929 400 CURVE SMOOTH",
"929 455 OFFCURVE",
"911 546 OFFCURVE",
"789 546 CURVE SMOOTH",
"640 546 OFFCURVE",
"603 382 OFFCURVE",
"534 106 CURVE",
"508 190 OFFCURVE",
"459 420 OFFCURVE",
"446 498 CURVE SMOOTH",
"441 527 OFFCURVE",
"429 546 OFFCURVE",
"402 546 CURVE SMOOTH",
"366 546 OFFCURVE",
"278 347 OFFCURVE",
"221 100 CURVE",
"195 149 OFFCURVE",
"138 434 OFFCURVE",
"128 546 CURVE",
"49 528 LINE",
"52 432 OFFCURVE",
"112 110 OFFCURVE",
"169 17 CURVE SMOOTH",
"183 -6 OFFCURVE",
"197 -10 OFFCURVE",
"215 -10 CURVE SMOOTH",
"242 -10 OFFCURVE",
"257 14 OFFCURVE",
"267 44 CURVE SMOOTH",
"274 65 OFFCURVE",
"343 367 OFFCURVE",
"380 410 CURVE",
"391 314 OFFCURVE",
"439 94 OFFCURVE",
"476 16 CURVE SMOOTH",
"484 -1 OFFCURVE",
"500 -10 OFFCURVE",
"518 -10 CURVE SMOOTH",
"536 -10 OFFCURVE",
"558 -7 OFFCURVE",
"567 22 CURVE SMOOTH",
"583 73 OFFCURVE",
"604 145 OFFCURVE",
"646 295 CURVE SMOOTH",
"680 415 OFFCURVE",
"707 478 OFFCURVE",
"776 478 CURVE SMOOTH",
"816 478 OFFCURVE",
"841 446 OFFCURVE",
"841 392 CURVE SMOOTH",
"841 331 OFFCURVE",
"794 251 OFFCURVE",
"744 214 CURVE",
"780 166 LINE",
"820 201 OFFCURVE",
"844 219 OFFCURVE",
"892 219 CURVE SMOOTH",
"922 219 OFFCURVE",
"945 200 OFFCURVE",
"945 152 CURVE SMOOTH",
"945 20 OFFCURVE",
"789 -145 OFFCURVE",
"570 -255 CURVE",
"593 -293 LINE"
);
}
);
width = 1072;
}
);
unicode = AA83;
},
{
glyphname = uniAA84;
lastChange = "2017-09-11 14:36:03 +0000";
layers = (
{
layerId = UUID0;
paths = (
{
closed = 1;
nodes = (
"914 -20 OFFCURVE",
"962 23 OFFCURVE",
"962 62 CURVE SMOOTH",
"962 107 OFFCURVE",
"931 145 OFFCURVE",
"850 145 CURVE SMOOTH",
"819 145 OFFCURVE",
"790 140 OFFCURVE",
"763 133 CURVE",
"761 149 OFFCURVE",
"760 166 OFFCURVE",
"760 185 CURVE SMOOTH",
"760 361 OFFCURVE",
"822 521 OFFCURVE",
"938 646 CURVE",
"915 676 LINE",
"758 536 OFFCURVE",
"672 342 OFFCURVE",
"672 181 CURVE SMOOTH",
"672 154 OFFCURVE",
"675 128 OFFCURVE",
"682 104 CURVE",
"629 82 OFFCURVE",
"579 59 OFFCURVE",
"527 59 CURVE SMOOTH",
"494 59 OFFCURVE",
"484 72 OFFCURVE",
"484 94 CURVE SMOOTH",
"484 170 OFFCURVE",
"531 321 OFFCURVE",
"531 419 CURVE SMOOTH",
"531 480 OFFCURVE",
"497 546 OFFCURVE",
"406 546 CURVE SMOOTH",
"215 546 OFFCURVE",
"85 308 OFFCURVE",
"49 -2 CURVE",
"145 24 LINE",
"177 251 OFFCURVE",
"217 478 OFFCURVE",
"386 478 CURVE SMOOTH",
"421 478 OFFCURVE",
"443 443 OFFCURVE",
"443 412 CURVE SMOOTH",
"443 294 OFFCURVE",
"396 172 OFFCURVE",
"396 96 CURVE SMOOTH",
"396 29 OFFCURVE",
"436 -10 OFFCURVE",
"511 -10 CURVE SMOOTH",
"593 -10 OFFCURVE",
"651 22 OFFCURVE",
"707 50 CURVE",
"734 8 OFFCURVE",
"779 -20 OFFCURVE",
"841 -20 CURVE SMOOTH"
);
},
{
closed = 1;
nodes = (
"812 34 OFFCURVE",
"791 51 OFFCURVE",
"777 80 CURVE",
"798 87 OFFCURVE",
"820 91 OFFCURVE",
"844 91 CURVE SMOOTH",
"880 91 OFFCURVE",
"889 74 OFFCURVE",
"889 61 CURVE SMOOTH",
"889 44 OFFCURVE",
"873 34 OFFCURVE",
"844 34 CURVE SMOOTH"
);
}
);
width = 986;
}
);
unicode = AA84;
},
{
glyphname = uniAA85;
lastChange = "2017-09-11 14:36:03 +0000";
layers = (
{
layerId = UUID0;
paths = (
{
closed = 1;
nodes = (
"264 -180 OFFCURVE",
"439 -42 OFFCURVE",
"439 158 CURVE SMOOTH",
"439 245 OFFCURVE",
"380 287 OFFCURVE",
"332 287 CURVE SMOOTH",
"322 287 OFFCURVE",
"312 286 OFFCURVE",
"302 284 CURVE",
"330 319 OFFCURVE",
"347 366 OFFCURVE",
"347 412 CURVE SMOOTH",
"347 479 OFFCURVE",
"313 546 OFFCURVE",
"191 546 CURVE SMOOTH",
"102 546 OFFCURVE",
"37 478 OFFCURVE",
"34 389 CURVE",
"83 389 LINE",
"97 461 OFFCURVE",
"137 478 OFFCURVE",
"186 478 CURVE SMOOTH",
"225 478 OFFCURVE",
"259 460 OFFCURVE",
"259 406 CURVE SMOOTH",
"259 354 OFFCURVE",
"235 292 OFFCURVE",
"151 243 CURVE",
"187 195 LINE",
"209 210 OFFCURVE",
"245 223 OFFCURVE",
"277 223 CURVE SMOOTH",
"316 223 OFFCURVE",
"352 193 OFFCURVE",
"352 141 CURVE SMOOTH",
"352 13 OFFCURVE",
"286 -125 OFFCURVE",
"-24 -255 CURVE",
"-1 -293 LINE"
);
}
);
width = 479;
}
);
unicode = AA85;
},
{
glyphname = uniAA86;
lastChange = "2017-09-11 14:36:03 +0000";
layers = (
{
layerId = UUID0;
paths = (
{
closed = 1;
nodes = (
"312 -186 OFFCURVE",
"508 29 OFFCURVE",
"508 261 CURVE SMOOTH",
"508 443 OFFCURVE",
"409 546 OFFCURVE",
"254 546 CURVE SMOOTH",
"123 546 OFFCURVE",
"49 458 OFFCURVE",
"49 363 CURVE SMOOTH",
"49 269 OFFCURVE",
"125 205 OFFCURVE",
"214 205 CURVE SMOOTH",
"228 205 OFFCURVE",
"240 206 OFFCURVE",
"251 208 CURVE",
"237 261 LINE",
"231 259 OFFCURVE",
"225 259 OFFCURVE",
"217 259 CURVE SMOOTH",
"156 259 OFFCURVE",
"137 309 OFFCURVE",
"137 364 CURVE SMOOTH",
"137 434 OFFCURVE",
"183 478 OFFCURVE",
"258 478 CURVE SMOOTH",
"385 478 OFFCURVE",
"420 364 OFFCURVE",
"420 264 CURVE SMOOTH",
"420 77 OFFCURVE",
"325 -125 OFFCURVE",
"15 -255 CURVE",
"38 -293 LINE"
);
}
);
width = 557;
}
);
unicode = AA86;
},
{
glyphname = uniAA87;
lastChange = "2017-09-11 14:36:03 +0000";
layers = (
{
layerId = UUID0;
paths = (
{
closed = 1;
nodes = (
"462 -167 OFFCURVE",
"567 52 OFFCURVE",
"567 265 CURVE SMOOTH",
"567 327 OFFCURVE",
"551 386 OFFCURVE",
"523 435 CURVE",
"565 469 OFFCURVE",
"607 498 OFFCURVE",
"649 522 CURVE",
"630 556 LINE",
"584 536 OFFCURVE",
"538 509 OFFCURVE",
"493 477 CURVE",
"451 525 OFFCURVE",
"393 556 OFFCURVE",
"322 556 CURVE SMOOTH",
"145 556 OFFCURVE",
"59 411 OFFCURVE",
"59 235 CURVE SMOOTH",
"59 164 OFFCURVE",
"71 75 OFFCURVE",
"96 7 CURVE",
"184 34 LINE",
"250 153 OFFCURVE",
"347 279 OFFCURVE",
"459 381 CURVE",
"473 344 OFFCURVE",
"479 302 OFFCURVE",
"479 257 CURVE SMOOTH",
"479 0 OFFCURVE",
"371 -147 OFFCURVE",
"172 -246 CURVE",
"195 -283 LINE"
);
},
{
closed = 1;
nodes = (
"149 157 OFFCURVE",
"146 208 OFFCURVE",
"146 257 CURVE SMOOTH",
"146 379 OFFCURVE",
"194 487 OFFCURVE",
"313 487 CURVE SMOOTH",
"367 487 OFFCURVE",
"406 465 OFFCURVE",
"432 430 CURVE",
"333 346 OFFCURVE",
"240 237 OFFCURVE",
"157 114 CURVE"
);
}
);
width = 659;
}
);
unicode = AA87;
},
{
glyphname = uniAA88;
lastChange = "2017-09-11 14:36:03 +0000";
layers = (
{
layerId = UUID0;
paths = (
{
closed = 1;
nodes = (
"1087 -20 OFFCURVE",
"1133 21 OFFCURVE",
"1133 62 CURVE SMOOTH",
"1133 104 OFFCURVE",
"1106 145 OFFCURVE",
"1021 145 CURVE SMOOTH",
"993 145 OFFCURVE",
"963 140 OFFCURVE",
"934 133 CURVE",
"926 179 OFFCURVE",
"924 239 OFFCURVE",
"924 322 CURVE SMOOTH",
"924 378 OFFCURVE",
"929 439 OFFCURVE",
"943 492 CURVE",
"959 490 OFFCURVE",
"976 489 OFFCURVE",
"993 489 CURVE SMOOTH",
"1094 489 OFFCURVE",
"1180 541 OFFCURVE",
"1180 604 CURVE SMOOTH",
"1180 642 OFFCURVE",
"1151 676 OFFCURVE",
"1085 676 CURVE SMOOTH",
"1001 676 OFFCURVE",
"939 622 OFFCURVE",
"897 552 CURVE",
"856 559 OFFCURVE",
"812 571 OFFCURVE",
"761 589 CURVE",
"746 555 LINE",
"774 537 OFFCURVE",
"820 518 OFFCURVE",
"874 504 CURVE",
"849 445 OFFCURVE",
"836 380 OFFCURVE",
"836 326 CURVE SMOOTH",
"836 226 OFFCURVE",
"847 160 OFFCURVE",
"863 113 CURVE",
"796 89 OFFCURVE",
"726 59 OFFCURVE",
"690 59 CURVE SMOOTH",
"656 59 OFFCURVE",
"647 72 OFFCURVE",
"647 94 CURVE SMOOTH",
"647 170 OFFCURVE",
"679 326 OFFCURVE",
"679 425 CURVE SMOOTH",
"679 475 OFFCURVE",
"644 546 OFFCURVE",
"562 546 CURVE SMOOTH",
"515 546 OFFCURVE",
"456 515 OFFCURVE",
"419 487 CURVE",
"418 503 OFFCURVE",
"417 519 OFFCURVE",
"415 536 CURVE",
"325 506 LINE",
"331 466 OFFCURVE",
"335 414 OFFCURVE",
"335 358 CURVE SMOOTH",
"335 217 OFFCURVE",
"326 59 OFFCURVE",
"224 59 CURVE SMOOTH",
"172 59 OFFCURVE",
"161 125 OFFCURVE",
"161 201 CURVE SMOOTH",
"161 287 OFFCURVE",
"167 360 OFFCURVE",
"167 417 CURVE SMOOTH",
"167 466 OFFCURVE",
"163 507 OFFCURVE",
"145 545 CURVE",
"59 517 LINE",
"74 484 OFFCURVE",
"79 445 OFFCURVE",
"79 402 CURVE SMOOTH",
"79 337 OFFCURVE",
"73 260 OFFCURVE",
"73 195 CURVE SMOOTH",
"73 84 OFFCURVE",
"109 -10 OFFCURVE",
"206 -10 CURVE SMOOTH",
"346 -10 OFFCURVE",
"423 163 OFFCURVE",
"423 390 CURVE SMOOTH",
"423 407 OFFCURVE",
"423 425 OFFCURVE",
"422 443 CURVE",
"454 464 OFFCURVE",
"504 478 OFFCURVE",
"534 478 CURVE SMOOTH",
"569 478 OFFCURVE",
"591 448 OFFCURVE",
"591 417 CURVE SMOOTH",
"591 299 OFFCURVE",
"559 172 OFFCURVE",
"559 96 CURVE SMOOTH",
"559 29 OFFCURVE",
"599 -10 OFFCURVE",
"674 -10 CURVE SMOOTH",
"757 -10 OFFCURVE",
"824 27 OFFCURVE",
"889 56 CURVE",
"917 10 OFFCURVE",
"956 -20 OFFCURVE",
"1018 -20 CURVE SMOOTH"
);
},
{
closed = 1;
nodes = (
"990 34 OFFCURVE",
"968 48 OFFCURVE",
"952 80 CURVE",
"974 87 OFFCURVE",
"997 91 OFFCURVE",
"1021 91 CURVE SMOOTH",
"1051 91 OFFCURVE",
"1060 77 OFFCURVE",
"1060 61 CURVE SMOOTH",
"1060 44 OFFCURVE",
"1038 34 OFFCURVE",
"1015 34 CURVE SMOOTH"
);
},
{
closed = 1;
nodes = (
"984 543 OFFCURVE",
"972 543 OFFCURVE",
"961 544 CURVE",
"982 591 OFFCURVE",
"1016 623 OFFCURVE",
"1065 623 CURVE SMOOTH",
"1094 623 OFFCURVE",
"1106 614 OFFCURVE",
"1106 596 CURVE SMOOTH",
"1106 577 OFFCURVE",
"1080 543 OFFCURVE",
"995 543 CURVE SMOOTH"
);
}
);
width = 1204;
}
);
unicode = AA88;
},
{
glyphname = uniAA89;
lastChange = "2017-09-11 14:36:03 +0000";
layers = (
{
layerId = UUID0;
paths = (
{
closed = 1;
nodes = (
"423 -10 OFFCURVE",
"518 87 OFFCURVE",
"518 224 CURVE SMOOTH",
"518 318 OFFCURVE",
"458 417 OFFCURVE",
"349 417 CURVE SMOOTH",
"278 417 OFFCURVE",
"233 369 OFFCURVE",
"220 326 CURVE",
"270 304 LINE",
"278 336 OFFCURVE",
"299 363 OFFCURVE",
"342 363 CURVE SMOOTH",
"415 363 OFFCURVE",
"430 278 OFFCURVE",
"430 225 CURVE SMOOTH",
"430 125 OFFCURVE",
"380 59 OFFCURVE",
"292 59 CURVE SMOOTH",
"186 59 OFFCURVE",
"146 136 OFFCURVE",
"146 242 CURVE SMOOTH",
"146 423 OFFCURVE",
"209 510 OFFCURVE",
"357 651 CURVE",
"330 676 LINE",
"126 504 OFFCURVE",
"59 365 OFFCURVE",
"59 242 CURVE SMOOTH",
"59 105 OFFCURVE",
"137 -10 OFFCURVE",
"292 -10 CURVE SMOOTH"
);
}
);
width = 576;
}
);
unicode = AA89;
},
{
glyphname = uniAA8A;
lastChange = "2017-09-11 14:36:03 +0000";
layers = (
{
layerId = UUID0;
paths = (
{
closed = 1;
nodes = (
"301 -10 OFFCURVE",
"370 40 OFFCURVE",
"439 70 CURVE",
"478 12 OFFCURVE",
"522 -10 OFFCURVE",
"564 -10 CURVE SMOOTH",
"627 -10 OFFCURVE",
"661 28 OFFCURVE",
"661 65 CURVE SMOOTH",
"661 110 OFFCURVE",
"623 149 OFFCURVE",
"538 149 CURVE SMOOTH",
"520 149 OFFCURVE",
"502 147 OFFCURVE",
"485 144 CURVE",
"478 178 OFFCURVE",
"477 243 OFFCURVE",
"477 292 CURVE SMOOTH",
"477 483 OFFCURVE",
"554 842 OFFCURVE",
"793 1019 CURVE",
"770 1055 LINE",
"479 844 OFFCURVE",
"389 530 OFFCURVE",
"389 292 CURVE SMOOTH",
"389 239 OFFCURVE",
"397 168 OFFCURVE",
"413 122 CURVE",
"344 96 OFFCURVE",
"280 59 OFFCURVE",
"242 59 CURVE SMOOTH",
"208 59 OFFCURVE",
"194 70 OFFCURVE",
"194 147 CURVE SMOOTH",
"194 243 OFFCURVE",
"189 442 OFFCURVE",
"140 545 CURVE",
"59 517 LINE",
"104 410 OFFCURVE",
"106 178 OFFCURVE",
"106 137 CURVE SMOOTH",
"106 26 OFFCURVE",
"150 -10 OFFCURVE",
"226 -10 CURVE SMOOTH"
);
},
{
closed = 1;
nodes = (
"540 44 OFFCURVE",
"521 52 OFFCURVE",
"505 92 CURVE",
"517 94 OFFCURVE",
"529 95 OFFCURVE",
"541 95 CURVE SMOOTH",
"571 95 OFFCURVE",
"587 86 OFFCURVE",
"587 67 CURVE SMOOTH",
"587 51 OFFCURVE",
"572 44 OFFCURVE",
"558 44 CURVE SMOOTH"
);
}
);
width = 696;
}
);
unicode = AA8A;
},
{
glyphname = uniAA8B;
lastChange = "2017-09-11 14:36:03 +0000";
layers = (
{
layerId = UUID0;
paths = (
{
closed = 1;
nodes = (
"814 -255 LINE",
"579 -159 OFFCURVE",
"480 0 OFFCURVE",
"480 149 CURVE SMOOTH",
"480 252 OFFCURVE",
"491 355 OFFCURVE",
"611 506 CURVE",
"580 533 LINE",
"559 512 OFFCURVE",
"539 490 OFFCURVE",
"521 467 CURVE",
"480 504 OFFCURVE",
"430 546 OFFCURVE",
"337 546 CURVE SMOOTH",
"178 546 OFFCURVE",
"49 328 OFFCURVE",
"49 175 CURVE SMOOTH",
"49 69 OFFCURVE",
"103 12 OFFCURVE",
"190 12 CURVE SMOOTH",
"261 12 OFFCURVE",
"306 67 OFFCURVE",
"321 98 CURVE",
"289 118 LINE",
"271 95 OFFCURVE",
"244 66 OFFCURVE",
"207 66 CURVE SMOOTH",
"146 66 OFFCURVE",
"137 118 OFFCURVE",
"137 176 CURVE SMOOTH",
"137 301 OFFCURVE",
"226 478 OFFCURVE",
"326 478 CURVE SMOOTH",
"413 478 OFFCURVE",
"448 440 OFFCURVE",
"473 399 CURVE",
"419 309 OFFCURVE",
"392 219 OFFCURVE",
"392 146 CURVE SMOOTH",
"392 -35 OFFCURVE",
"520 -189 OFFCURVE",
"791 -293 CURVE"
);
}
);
width = 658;
}
);
unicode = AA8B;
},
{
glyphname = uniAA8C;
lastChange = "2017-09-11 14:36:03 +0000";
layers = (
{
layerId = UUID0;
paths = (
{
closed = 1;
nodes = (
"301 -10 OFFCURVE",
"370 40 OFFCURVE",
"439 70 CURVE",
"478 12 OFFCURVE",
"522 -10 OFFCURVE",
"564 -10 CURVE SMOOTH",
"627 -10 OFFCURVE",
"661 28 OFFCURVE",
"661 65 CURVE SMOOTH",
"661 110 OFFCURVE",
"623 149 OFFCURVE",
"538 149 CURVE SMOOTH",
"520 149 OFFCURVE",
"502 147 OFFCURVE",
"485 144 CURVE",
"478 178 OFFCURVE",
"477 243 OFFCURVE",
"477 292 CURVE SMOOTH",
"477 393 OFFCURVE",
"491 491 OFFCURVE",
"517 532 CURVE",
"506 584 LINE",
"486 579 OFFCURVE",
"480 577 OFFCURVE",
"463 577 CURVE SMOOTH",
"416 577 OFFCURVE",
"376 608 OFFCURVE",
"376 694 CURVE SMOOTH",
"376 840 OFFCURVE",
"477 957 OFFCURVE",
"732 1025 CURVE",
"721 1055 LINE",
"520 1026 OFFCURVE",
"287 906 OFFCURVE",
"287 688 CURVE SMOOTH",
"287 616 OFFCURVE",
"323 534 OFFCURVE",
"414 514 CURVE",
"396 436 OFFCURVE",
"389 362 OFFCURVE",
"389 292 CURVE SMOOTH",
"389 239 OFFCURVE",
"397 168 OFFCURVE",
"413 122 CURVE",
"344 96 OFFCURVE",
"280 59 OFFCURVE",
"242 59 CURVE SMOOTH",
"208 59 OFFCURVE",
"194 70 OFFCURVE",
"194 147 CURVE SMOOTH",
"194 243 OFFCURVE",
"189 442 OFFCURVE",
"140 545 CURVE",
"59 517 LINE",
"104 410 OFFCURVE",
"106 178 OFFCURVE",
"106 137 CURVE SMOOTH",
"106 26 OFFCURVE",
"150 -10 OFFCURVE",
"226 -10 CURVE SMOOTH"
);
},
{
closed = 1;
nodes = (
"540 44 OFFCURVE",
"521 52 OFFCURVE",
"505 92 CURVE",
"517 94 OFFCURVE",
"529 95 OFFCURVE",
"541 95 CURVE SMOOTH",
"571 95 OFFCURVE",
"587 86 OFFCURVE",
"587 67 CURVE SMOOTH",
"587 51 OFFCURVE",
"572 44 OFFCURVE",
"558 44 CURVE SMOOTH"
);
}
);
width = 674;
}
);
unicode = AA8C;
},
{
glyphname = uniAA8D;
lastChange = "2017-09-11 14:36:03 +0000";
layers = (
{
layerId = UUID0;
paths = (
{
closed = 1;
nodes = (
"641 -186 OFFCURVE",
"690 -124 OFFCURVE",
"690 -51 CURVE SMOOTH",
"690 13 OFFCURVE",
"643 82 OFFCURVE",
"513 82 CURVE SMOOTH",
"504 82 OFFCURVE",
"500 82 OFFCURVE",
"493 81 CURVE",
"478 129 OFFCURVE",
"477 230 OFFCURVE",
"477 292 CURVE SMOOTH",
"477 356 OFFCURVE",
"485 481 OFFCURVE",
"516 531 CURVE",
"506 584 LINE",
"486 579 OFFCURVE",
"480 577 OFFCURVE",
"463 577 CURVE SMOOTH",
"416 577 OFFCURVE",
"376 608 OFFCURVE",
"376 694 CURVE SMOOTH",
"376 840 OFFCURVE",
"477 957 OFFCURVE",
"732 1025 CURVE",
"721 1055 LINE",
"520 1026 OFFCURVE",
"287 906 OFFCURVE",
"287 688 CURVE SMOOTH",
"287 616 OFFCURVE",
"322 534 OFFCURVE",
"414 514 CURVE",
"398 439 OFFCURVE",
"389 357 OFFCURVE",
"389 292 CURVE SMOOTH",
"389 232 OFFCURVE",
"395 133 OFFCURVE",
"417 77 CURVE",
"354 68 OFFCURVE",
"311 59 OFFCURVE",
"244 59 CURVE SMOOTH",
"208 59 OFFCURVE",
"194 71 OFFCURVE",
"194 147 CURVE SMOOTH",
"194 243 OFFCURVE",
"189 442 OFFCURVE",
"140 545 CURVE",
"59 517 LINE",
"104 410 OFFCURVE",
"106 178 OFFCURVE",
"106 137 CURVE SMOOTH",
"106 26 OFFCURVE",
"150 -10 OFFCURVE",
"226 -10 CURVE SMOOTH",
"346 -10 OFFCURVE",
"389 13 OFFCURVE",
"506 13 CURVE SMOOTH",
"566 13 OFFCURVE",
"617 -10 OFFCURVE",
"617 -63 CURVE SMOOTH",
"617 -113 OFFCURVE",
"566 -132 OFFCURVE",
"524 -132 CURVE SMOOTH",
"492 -132 OFFCURVE",
"458 -127 OFFCURVE",
"422 -103 CURVE",
"400 -134 LINE",
"431 -162 OFFCURVE",
"481 -186 OFFCURVE",
"533 -186 CURVE SMOOTH"
);
}
);
width = 674;
}
);
unicode = AA8D;
},
{
glyphname = uniAA8E;
lastChange = "2017-09-11 14:36:03 +0000";
layers = (
{
layerId = UUID0;
paths = (
{
closed = 1;
nodes = (
"536 -10 OFFCURVE",
"542 -9 OFFCURVE",
"549 -7 CURVE",
"557 44 LINE",
"542 44 LINE SMOOTH",
"442 44 OFFCURVE",
"399 179 OFFCURVE",
"341 309 CURVE",
"410 391 OFFCURVE",
"492 463 OFFCURVE",
"574 507 CURVE",
"555 546 LINE",
"469 500 OFFCURVE",
"386 441 OFFCURVE",
"312 371 CURVE",
"266 459 OFFCURVE",
"209 534 OFFCURVE",
"114 546 CURVE",
"83 471 LINE",
"165 455 OFFCURVE",
"213 390 OFFCURVE",
"253 312 CURVE",
"172 225 OFFCURVE",
"105 124 OFFCURVE",
"59 14 CURVE",
"153 -5 LINE",
"177 67 OFFCURVE",
"225 156 OFFCURVE",
"287 241 CURVE",
"342 117 OFFCURVE",
"395 -10 OFFCURVE",
"530 -10 CURVE SMOOTH"
);
}
);
width = 613;
}
);
unicode = AA8E;
},
{
glyphname = uniAA8F;
lastChange = "2017-09-11 14:36:03 +0000";
layers = (
{
layerId = UUID0;
paths = (
{
closed = 1;
nodes = (
"904 -20 OFFCURVE",
"962 11 OFFCURVE",
"962 64 CURVE SMOOTH",
"962 103 OFFCURVE",
"932 145 OFFCURVE",
"851 145 CURVE SMOOTH",
"823 145 OFFCURVE",
"796 141 OFFCURVE",
"771 135 CURVE",
"765 168 OFFCURVE",
"762 208 OFFCURVE",
"762 255 CURVE SMOOTH",
"762 567 OFFCURVE",
"945 867 OFFCURVE",
"1174 1019 CURVE",
"1151 1055 LINE",
"821 838 OFFCURVE",
"674 512 OFFCURVE",
"674 237 CURVE SMOOTH",
"674 186 OFFCURVE",
"680 143 OFFCURVE",
"692 108 CURVE",
"634 85 OFFCURVE",
"582 59 OFFCURVE",
"527 59 CURVE SMOOTH",
"494 59 OFFCURVE",
"484 72 OFFCURVE",
"484 94 CURVE SMOOTH",
"484 170 OFFCURVE",
"531 321 OFFCURVE",
"531 419 CURVE SMOOTH",
"531 480 OFFCURVE",
"497 546 OFFCURVE",
"406 546 CURVE SMOOTH",
"215 546 OFFCURVE",
"85 308 OFFCURVE",
"49 -2 CURVE",
"145 24 LINE",
"177 251 OFFCURVE",
"217 478 OFFCURVE",
"386 478 CURVE SMOOTH",
"421 478 OFFCURVE",
"443 443 OFFCURVE",
"443 412 CURVE SMOOTH",
"443 294 OFFCURVE",
"396 172 OFFCURVE",
"396 96 CURVE SMOOTH",
"396 29 OFFCURVE",
"436 -10 OFFCURVE",
"511 -10 CURVE SMOOTH",
"597 -10 OFFCURVE",
"657 25 OFFCURVE",
"717 54 CURVE",
"749 3 OFFCURVE",
"798 -20 OFFCURVE",
"849 -20 CURVE SMOOTH"
);
},
{
closed = 1;
nodes = (
"820 34 OFFCURVE",
"800 51 OFFCURVE",
"786 83 CURVE",
"805 88 OFFCURVE",
"824 91 OFFCURVE",
"845 91 CURVE SMOOTH",
"881 91 OFFCURVE",
"890 74 OFFCURVE",
"890 61 CURVE SMOOTH",
"890 49 OFFCURVE",
"874 34 OFFCURVE",
"845 34 CURVE SMOOTH"
);
}
);
width = 986;
}
);
unicode = AA8F;
},
{
glyphname = uniAA90;
lastChange = "2017-09-11 14:36:03 +0000";
layers = (
{
layerId = UUID0;
paths = (
{
closed = 1;
nodes = (
"836 -186 OFFCURVE",
"1041 72 OFFCURVE",
"1041 310 CURVE SMOOTH",
"1041 469 OFFCURVE",
"969 546 OFFCURVE",
"902 546 CURVE SMOOTH",
"875 546 OFFCURVE",
"852 523 OFFCURVE",
"842 493 CURVE SMOOTH",
"826 445 OFFCURVE",
"772 64 OFFCURVE",
"653 64 CURVE SMOOTH",
"641 64 OFFCURVE",
"635 72 OFFCURVE",
"635 90 CURVE SMOOTH",
"635 167 OFFCURVE",
"679 326 OFFCURVE",
"679 425 CURVE SMOOTH",
"679 475 OFFCURVE",
"644 546 OFFCURVE",
"562 546 CURVE SMOOTH",
"515 546 OFFCURVE",
"456 515 OFFCURVE",
"419 487 CURVE",
"418 503 OFFCURVE",
"417 519 OFFCURVE",
"415 536 CURVE",
"325 506 LINE",
"331 466 OFFCURVE",
"335 414 OFFCURVE",
"335 358 CURVE SMOOTH",
"335 217 OFFCURVE",
"326 59 OFFCURVE",
"224 59 CURVE SMOOTH",
"172 59 OFFCURVE",
"161 125 OFFCURVE",
"161 201 CURVE SMOOTH",
"161 287 OFFCURVE",
"167 360 OFFCURVE",
"167 417 CURVE SMOOTH",
"167 466 OFFCURVE",
"163 507 OFFCURVE",
"145 545 CURVE",
"59 517 LINE",
"74 484 OFFCURVE",
"79 445 OFFCURVE",
"79 402 CURVE SMOOTH",
"79 337 OFFCURVE",
"73 260 OFFCURVE",
"73 195 CURVE SMOOTH",
"73 84 OFFCURVE",
"109 -10 OFFCURVE",
"206 -10 CURVE SMOOTH",
"346 -10 OFFCURVE",
"423 163 OFFCURVE",
"423 390 CURVE SMOOTH",
"423 407 OFFCURVE",
"423 425 OFFCURVE",
"422 443 CURVE",
"454 464 OFFCURVE",
"504 478 OFFCURVE",
"534 478 CURVE SMOOTH",
"569 478 OFFCURVE",
"591 448 OFFCURVE",
"591 417 CURVE SMOOTH",
"591 299 OFFCURVE",
"547 168 OFFCURVE",
"547 92 CURVE SMOOTH",
"547 38 OFFCURVE",
"586 -4 OFFCURVE",
"642 -4 CURVE SMOOTH",
"810 -4 OFFCURVE",
"873 332 OFFCURVE",
"892 462 CURVE",
"941 458 OFFCURVE",
"953 357 OFFCURVE",
"953 308 CURVE SMOOTH",
"953 121 OFFCURVE",
"849 -125 OFFCURVE",
"538 -255 CURVE",
"561 -293 LINE"
);
}
);
width = 1100;
}
);
unicode = AA90;
},
{
glyphname = uniAA91;
lastChange = "2017-09-11 14:36:03 +0000";
layers = (
{
layerId = UUID0;
paths = (
{
closed = 1;
nodes = (
"525 -186 OFFCURVE",
"733 120 OFFCURVE",
"733 358 CURVE SMOOTH",
"733 486 OFFCURVE",
"686 546 OFFCURVE",
"602 546 CURVE SMOOTH",
"551 546 OFFCURVE",
"502 508 OFFCURVE",
"466 453 CURVE",
"453 505 OFFCURVE",
"423 546 OFFCURVE",
"362 546 CURVE SMOOTH",
"210 546 OFFCURVE",
"85 308 OFFCURVE",
"49 -2 CURVE",
"145 24 LINE",
"177 251 OFFCURVE",
"229 478 OFFCURVE",
"342 478 CURVE SMOOTH",
"377 478 OFFCURVE",
"390 440 OFFCURVE",
"390 383 CURVE SMOOTH",
"390 323 OFFCURVE",
"376 255 OFFCURVE",
"357 191 CURVE",
"443 191 LINE",
"462 258 OFFCURVE",
"473 314 OFFCURVE",
"475 363 CURVE",
"497 417 OFFCURVE",
"540 478 OFFCURVE",
"590 478 CURVE SMOOTH",
"628 478 OFFCURVE",
"646 449 OFFCURVE",
"646 356 CURVE SMOOTH",
"646 169 OFFCURVE",
"538 -125 OFFCURVE",
"227 -255 CURVE",
"250 -293 LINE"
);
}
);
width = 792;
}
);
unicode = AA91;
},
{
glyphname = uniAA92;
lastChange = "2017-09-11 14:36:03 +0000";
layers = (
{
layerId = UUID0;
paths = (
{
closed = 1;
nodes = (
"222 28 LINE",
"161 62 OFFCURVE",
"137 123 OFFCURVE",
"137 204 CURVE SMOOTH",
"137 344 OFFCURVE",
"236 478 OFFCURVE",
"355 478 CURVE SMOOTH",
"426 478 OFFCURVE",
"437 412 OFFCURVE",
"437 335 CURVE SMOOTH",
"437 250 OFFCURVE",
"431 181 OFFCURVE",
"431 124 CURVE SMOOTH",
"431 75 OFFCURVE",
"436 34 OFFCURVE",
"453 -4 CURVE",
"540 24 LINE",
"524 57 OFFCURVE",
"519 96 OFFCURVE",
"519 139 CURVE SMOOTH",
"519 204 OFFCURVE",
"525 276 OFFCURVE",
"525 341 CURVE SMOOTH",
"525 452 OFFCURVE",
"487 546 OFFCURVE",
"363 546 CURVE SMOOTH",
"200 546 OFFCURVE",
"49 358 OFFCURVE",
"49 200 CURVE SMOOTH",
"49 96 OFFCURVE",
"102 17 OFFCURVE",
"194 -15 CURVE"
);
}
);
width = 598;
}
);
unicode = AA92;
},
{
glyphname = uniAA93;
lastChange = "2017-09-11 14:36:03 +0000";
layers = (
{
layerId = UUID0;
paths = (
{
closed = 1;
nodes = (
"980 -255 LINE",
"824 -174 OFFCURVE",
"767 -113 OFFCURVE",
"767 31 CURVE SMOOTH",
"767 116 OFFCURVE",
"804 278 OFFCURVE",
"804 375 CURVE SMOOTH",
"804 486 OFFCURVE",
"758 546 OFFCURVE",
"646 546 CURVE SMOOTH",
"500 546 OFFCURVE",
"359 387 OFFCURVE",
"359 222 CURVE SMOOTH",
"359 189 OFFCURVE",
"365 157 OFFCURVE",
"375 125 CURVE",
"318 98 OFFCURVE",
"265 59 OFFCURVE",
"226 59 CURVE SMOOTH",
"172 59 OFFCURVE",
"161 125 OFFCURVE",
"161 201 CURVE SMOOTH",
"161 287 OFFCURVE",
"167 360 OFFCURVE",
"167 417 CURVE SMOOTH",
"167 466 OFFCURVE",
"163 507 OFFCURVE",
"145 545 CURVE",
"59 517 LINE",
"74 484 OFFCURVE",
"79 445 OFFCURVE",
"79 402 CURVE SMOOTH",
"79 337 OFFCURVE",
"73 260 OFFCURVE",
"73 195 CURVE SMOOTH",
"73 84 OFFCURVE",
"109 -10 OFFCURVE",
"209 -10 CURVE SMOOTH",
"286 -10 OFFCURVE",
"328 41 OFFCURVE",
"400 71 CURVE",
"432 20 OFFCURVE",
"484 -10 OFFCURVE",
"531 -10 CURVE SMOOTH",
"594 -10 OFFCURVE",
"627 28 OFFCURVE",
"627 65 CURVE SMOOTH",
"627 110 OFFCURVE",
"585 149 OFFCURVE",
"500 149 CURVE SMOOTH",
"484 149 OFFCURVE",
"469 147 OFFCURVE",
"455 145 CURVE",
"450 165 OFFCURVE",
"447 185 OFFCURVE",
"447 219 CURVE SMOOTH",
"447 358 OFFCURVE",
"523 478 OFFCURVE",
"638 478 CURVE SMOOTH",
"701 478 OFFCURVE",
"716 445 OFFCURVE",
"716 369 CURVE SMOOTH",
"716 258 OFFCURVE",
"679 157 OFFCURVE",
"679 53 CURVE SMOOTH",
"679 -152 OFFCURVE",
"803 -216 OFFCURVE",
"958 -293 CURVE"
);
},
{
closed = 1;
nodes = (
"506 44 OFFCURVE",
"487 52 OFFCURVE",
"472 92 CURVE",
"484 94 OFFCURVE",
"496 95 OFFCURVE",
"508 95 CURVE SMOOTH",
"538 95 OFFCURVE",
"554 86 OFFCURVE",
"554 67 CURVE SMOOTH",
"554 51 OFFCURVE",
"539 44 OFFCURVE",
"525 44 CURVE SMOOTH"
);
}
);
width = 902;
}
);
unicode = AA93;
},
{
glyphname = uniAA94;
lastChange = "2017-09-11 14:36:03 +0000";
layers = (
{
layerId = UUID0;
paths = (
{
closed = 1;
nodes = (
"743 24 LINE",
"727 57 OFFCURVE",
"722 96 OFFCURVE",
"722 139 CURVE SMOOTH",
"722 204 OFFCURVE",
"729 276 OFFCURVE",
"729 357 CURVE SMOOTH",
"729 486 OFFCURVE",
"686 546 OFFCURVE",
"602 546 CURVE SMOOTH",
"551 546 OFFCURVE",
"502 508 OFFCURVE",
"466 453 CURVE",
"453 505 OFFCURVE",
"423 546 OFFCURVE",
"362 546 CURVE SMOOTH",
"210 546 OFFCURVE",
"85 308 OFFCURVE",
"49 -2 CURVE",
"145 24 LINE",
"177 251 OFFCURVE",
"229 478 OFFCURVE",
"342 478 CURVE SMOOTH",
"377 478 OFFCURVE",
"390 440 OFFCURVE",
"390 383 CURVE SMOOTH",
"390 323 OFFCURVE",
"376 255 OFFCURVE",
"357 191 CURVE",
"443 191 LINE",
"462 258 OFFCURVE",
"473 314 OFFCURVE",
"475 363 CURVE",
"497 417 OFFCURVE",
"540 478 OFFCURVE",
"590 478 CURVE SMOOTH",
"628 478 OFFCURVE",
"641 449 OFFCURVE",
"641 356 CURVE SMOOTH",
"641 278 OFFCURVE",
"634 201 OFFCURVE",
"634 124 CURVE SMOOTH",
"634 75 OFFCURVE",
"639 34 OFFCURVE",
"656 -4 CURVE"
);
}
);
width = 801;
}
);
unicode = AA94;
},
{
glyphname = uniAA95;
lastChange = "2017-09-11 14:36:03 +0000";
layers = (
{
layerId = UUID0;
paths = (
{
closed = 1;
nodes = (
"295 -10 OFFCURVE",
"352 67 OFFCURVE",
"389 187 CURVE SMOOTH",
"425 305 OFFCURVE",
"462 477 OFFCURVE",
"536 477 CURVE SMOOTH",
"588 477 OFFCURVE",
"599 411 OFFCURVE",
"599 334 CURVE SMOOTH",
"599 249 OFFCURVE",
"593 175 OFFCURVE",
"593 118 CURVE SMOOTH",
"593 69 OFFCURVE",
"597 28 OFFCURVE",
"615 -10 CURVE",
"701 19 LINE",
"686 51 OFFCURVE",
"681 90 OFFCURVE",
"681 133 CURVE SMOOTH",
"681 198 OFFCURVE",
"687 275 OFFCURVE",
"687 340 CURVE SMOOTH",
"687 451 OFFCURVE",
"650 545 OFFCURVE",
"554 545 CURVE SMOOTH",
"441 545 OFFCURVE",
"389 440 OFFCURVE",
"348 284 CURVE SMOOTH",
"326 201 OFFCURVE",
"290 59 OFFCURVE",
"224 59 CURVE SMOOTH",
"172 59 OFFCURVE",
"161 125 OFFCURVE",
"161 201 CURVE SMOOTH",
"161 287 OFFCURVE",
"167 360 OFFCURVE",
"167 417 CURVE SMOOTH",
"167 466 OFFCURVE",
"163 507 OFFCURVE",
"145 545 CURVE",
"59 517 LINE",
"74 484 OFFCURVE",
"79 445 OFFCURVE",
"79 402 CURVE SMOOTH",
"79 337 OFFCURVE",
"73 260 OFFCURVE",
"73 195 CURVE SMOOTH",
"73 84 OFFCURVE",
"109 -10 OFFCURVE",
"206 -10 CURVE SMOOTH"
);
}
);
width = 760;
}
);
unicode = AA95;
},
{
glyphname = uniAA96;
lastChange = "2017-09-11 14:36:03 +0000";
layers = (
{
layerId = UUID0;
paths = (
{
closed = 1;
nodes = (
"717 -255 LINE",
"560 -174 OFFCURVE",
"503 -113 OFFCURVE",
"503 31 CURVE SMOOTH",
"503 116 OFFCURVE",
"541 278 OFFCURVE",
"541 375 CURVE SMOOTH",
"541 486 OFFCURVE",
"479 546 OFFCURVE",
"367 546 CURVE SMOOTH",
"195 546 OFFCURVE",
"49 328 OFFCURVE",
"49 175 CURVE SMOOTH",
"49 69 OFFCURVE",
"103 12 OFFCURVE",
"190 12 CURVE SMOOTH",
"261 12 OFFCURVE",
"306 67 OFFCURVE",
"321 98 CURVE",
"289 118 LINE",
"271 95 OFFCURVE",
"244 66 OFFCURVE",
"207 66 CURVE SMOOTH",
"146 66 OFFCURVE",
"137 118 OFFCURVE",
"137 176 CURVE SMOOTH",
"137 301 OFFCURVE",
"241 478 OFFCURVE",
"350 478 CURVE SMOOTH",
"408 478 OFFCURVE",
"453 455 OFFCURVE",
"453 369 CURVE SMOOTH",
"453 258 OFFCURVE",
"415 157 OFFCURVE",
"415 53 CURVE SMOOTH",
"415 -152 OFFCURVE",
"540 -216 OFFCURVE",
"694 -293 CURVE"
);
}
);
width = 639;
}
);
unicode = AA96;
},
{
glyphname = uniAA97;
lastChange = "2017-09-11 14:36:03 +0000";
layers = (
{
layerId = UUID0;
paths = (
{
closed = 1;
nodes = (
"396 -186 OFFCURVE",
"602 72 OFFCURVE",
"602 310 CURVE SMOOTH",
"602 469 OFFCURVE",
"529 546 OFFCURVE",
"463 546 CURVE SMOOTH",
"436 546 OFFCURVE",
"412 523 OFFCURVE",
"402 493 CURVE SMOOTH",
"386 445 OFFCURVE",
"333 64 OFFCURVE",
"214 64 CURVE SMOOTH",
"175 64 OFFCURVE",
"161 130 OFFCURVE",
"161 207 CURVE SMOOTH",
"161 292 OFFCURVE",
"167 361 OFFCURVE",
"167 418 CURVE SMOOTH",
"167 467 OFFCURVE",
"163 508 OFFCURVE",
"145 546 CURVE",
"59 518 LINE",
"74 485 OFFCURVE",
"79 446 OFFCURVE",
"79 403 CURVE SMOOTH",
"79 338 OFFCURVE",
"73 266 OFFCURVE",
"73 201 CURVE SMOOTH",
"73 90 OFFCURVE",
"106 -4 OFFCURVE",
"202 -4 CURVE SMOOTH",
"371 -4 OFFCURVE",
"434 332 OFFCURVE",
"452 462 CURVE",
"502 458 OFFCURVE",
"514 357 OFFCURVE",
"514 308 CURVE SMOOTH",
"514 121 OFFCURVE",
"409 -125 OFFCURVE",
"99 -255 CURVE",
"122 -293 LINE"
);
}
);
width = 660;
}
);
unicode = AA97;
},
{
glyphname = uniAA98;
lastChange = "2017-09-11 14:36:03 +0000";
layers = (
{
layerId = UUID0;
paths = (
{
closed = 1;
nodes = (
"1065 -20 OFFCURVE",
"1113 23 OFFCURVE",
"1113 62 CURVE SMOOTH",
"1113 107 OFFCURVE",
"1083 145 OFFCURVE",
"1001 145 CURVE SMOOTH",
"970 145 OFFCURVE",
"941 140 OFFCURVE",
"915 133 CURVE",
"913 148 OFFCURVE",
"912 166 OFFCURVE",
"912 185 CURVE SMOOTH",
"912 361 OFFCURVE",
"973 521 OFFCURVE",
"1089 646 CURVE",
"1066 676 LINE",
"909 536 OFFCURVE",
"824 342 OFFCURVE",
"824 181 CURVE SMOOTH",
"824 154 OFFCURVE",
"827 128 OFFCURVE",
"834 104 CURVE",
"782 82 OFFCURVE",
"730 59 OFFCURVE",
"679 59 CURVE SMOOTH",
"645 59 OFFCURVE",
"636 72 OFFCURVE",
"636 94 CURVE SMOOTH",
"636 165 OFFCURVE",
"684 318 OFFCURVE",
"684 425 CURVE SMOOTH",
"684 475 OFFCURVE",
"649 546 OFFCURVE",
"567 546 CURVE SMOOTH",
"518 546 OFFCURVE",
"456 512 OFFCURVE",
"419 483 CURVE",
"418 500 OFFCURVE",
"417 518 OFFCURVE",
"415 536 CURVE",
"325 506 LINE",
"331 466 OFFCURVE",
"335 414 OFFCURVE",
"335 358 CURVE SMOOTH",
"335 217 OFFCURVE",
"326 59 OFFCURVE",
"224 59 CURVE SMOOTH",
"172 59 OFFCURVE",
"161 125 OFFCURVE",
"161 201 CURVE SMOOTH",
"161 287 OFFCURVE",
"167 360 OFFCURVE",
"167 417 CURVE SMOOTH",
"167 466 OFFCURVE",
"163 507 OFFCURVE",
"145 545 CURVE",
"59 517 LINE",
"74 484 OFFCURVE",
"79 445 OFFCURVE",
"79 402 CURVE SMOOTH",
"79 337 OFFCURVE",
"73 260 OFFCURVE",
"73 195 CURVE SMOOTH",
"73 84 OFFCURVE",
"109 -10 OFFCURVE",
"206 -10 CURVE SMOOTH",
"346 -10 OFFCURVE",
"423 163 OFFCURVE",
"423 390 CURVE SMOOTH",
"423 406 OFFCURVE",
"423 423 OFFCURVE",
"422 440 CURVE",
"454 462 OFFCURVE",
"507 478 OFFCURVE",
"539 478 CURVE SMOOTH",
"574 478 OFFCURVE",
"596 448 OFFCURVE",
"596 417 CURVE SMOOTH",
"596 314 OFFCURVE",
"548 178 OFFCURVE",
"548 96 CURVE SMOOTH",
"548 29 OFFCURVE",
"587 -10 OFFCURVE",
"663 -10 CURVE SMOOTH",
"744 -10 OFFCURVE",
"802 21 OFFCURVE",
"858 50 CURVE",
"886 8 OFFCURVE",
"930 -20 OFFCURVE",
"993 -20 CURVE SMOOTH"
);
},
{
closed = 1;
nodes = (
"963 34 OFFCURVE",
"941 51 OFFCURVE",
"928 81 CURVE",
"949 87 OFFCURVE",
"971 91 OFFCURVE",
"995 91 CURVE SMOOTH",
"1031 91 OFFCURVE",
"1040 74 OFFCURVE",
"1040 61 CURVE SMOOTH",
"1040 44 OFFCURVE",
"1024 34 OFFCURVE",
"996 34 CURVE SMOOTH"
);
}
);
width = 1138;
}
);
unicode = AA98;
},
{
glyphname = uniAA99;
lastChange = "2017-09-11 14:36:03 +0000";
layers = (
{
layerId = UUID0;
paths = (
{
closed = 1;
nodes = (
"614 -20 OFFCURVE",
"663 23 OFFCURVE",
"663 62 CURVE SMOOTH",
"663 107 OFFCURVE",
"632 145 OFFCURVE",
"550 145 CURVE SMOOTH",
"520 145 OFFCURVE",
"491 140 OFFCURVE",
"464 133 CURVE",
"462 148 OFFCURVE",
"461 166 OFFCURVE",
"461 185 CURVE SMOOTH",
"461 361 OFFCURVE",
"522 521 OFFCURVE",
"639 646 CURVE",
"615 676 LINE",
"458 536 OFFCURVE",
"373 342 OFFCURVE",
"373 181 CURVE SMOOTH",
"373 154 OFFCURVE",
"376 128 OFFCURVE",
"383 104 CURVE",
"332 82 OFFCURVE",
"280 59 OFFCURVE",
"229 59 CURVE SMOOTH",
"197 59 OFFCURVE",
"191 71 OFFCURVE",
"191 96 CURVE SMOOTH",
"191 116 OFFCURVE",
"205 190 OFFCURVE",
"205 244 CURVE SMOOTH",
"205 340 OFFCURVE",
"185 467 OFFCURVE",
"140 545 CURVE",
"59 517 LINE",
"107 444 OFFCURVE",
"117 286 OFFCURVE",
"117 245 CURVE SMOOTH",
"117 208 OFFCURVE",
"104 143 OFFCURVE",
"104 105 CURVE SMOOTH",
"104 29 OFFCURVE",
"151 -10 OFFCURVE",
"218 -10 CURVE SMOOTH",
"267 -10 OFFCURVE",
"352 21 OFFCURVE",
"408 50 CURVE",
"435 8 OFFCURVE",
"479 -20 OFFCURVE",
"542 -20 CURVE SMOOTH"
);
},
{
closed = 1;
nodes = (
"513 34 OFFCURVE",
"491 51 OFFCURVE",
"478 81 CURVE",
"499 87 OFFCURVE",
"521 91 OFFCURVE",
"544 91 CURVE SMOOTH",
"581 91 OFFCURVE",
"589 74 OFFCURVE",
"589 61 CURVE SMOOTH",
"589 44 OFFCURVE",
"574 34 OFFCURVE",
"545 34 CURVE SMOOTH"
);
}
);
width = 687;
}
);
unicode = AA99;
},
{
glyphname = uniAA9A;
lastChange = "2017-09-11 14:36:03 +0000";
layers = (
{
layerId = UUID0;
paths = (
{
closed = 1;
nodes = (
"265 -10 OFFCURVE",
"276 14 OFFCURVE",
"286 44 CURVE SMOOTH",
"304 97 OFFCURVE",
"367 459 OFFCURVE",
"556 646 CURVE",
"532 676 LINE",
"329 508 OFFCURVE",
"272 276 OFFCURVE",
"229 110 CURVE",
"206 151 OFFCURVE",
"133 418 OFFCURVE",
"119 546 CURVE",
"39 528 LINE",
"50 416 OFFCURVE",
"129 99 OFFCURVE",
"179 17 CURVE SMOOTH",
"193 -6 OFFCURVE",
"207 -10 OFFCURVE",
"229 -10 CURVE SMOOTH"
);
}
);
width = 556;
}
);
unicode = AA9A;
},
{
glyphname = uniAA9B;
lastChange = "2017-09-11 14:36:03 +0000";
layers = (
{
layerId = UUID0;
paths = (
{
closed = 1;
nodes = (
"242 -10 OFFCURVE",
"257 14 OFFCURVE",
"267 44 CURVE SMOOTH",
"274 65 OFFCURVE",
"343 367 OFFCURVE",
"380 410 CURVE",
"391 314 OFFCURVE",
"439 94 OFFCURVE",
"476 16 CURVE SMOOTH",
"484 -1 OFFCURVE",
"500 -10 OFFCURVE",
"518 -10 CURVE SMOOTH",
"536 -10 OFFCURVE",
"558 -7 OFFCURVE",
"567 22 CURVE SMOOTH",
"583 73 OFFCURVE",
"659 362 OFFCURVE",
"692 410 CURVE",
"705 266 OFFCURVE",
"767 67 OFFCURVE",
"803 17 CURVE SMOOTH",
"819 -5 OFFCURVE",
"831 -10 OFFCURVE",
"854 -10 CURVE SMOOTH",
"889 -10 OFFCURVE",
"900 14 OFFCURVE",
"911 44 CURVE SMOOTH",
"930 96 OFFCURVE",
"991 459 OFFCURVE",
"1180 646 CURVE",
"1157 676 LINE",
"954 508 OFFCURVE",
"896 276 OFFCURVE",
"854 110 CURVE",
"802 213 OFFCURVE",
"769 433 OFFCURVE",
"758 498 CURVE SMOOTH",
"753 527 OFFCURVE",
"741 546 OFFCURVE",
"714 546 CURVE SMOOTH",
"676 546 OFFCURVE",
"575 308 OFFCURVE",
"534 106 CURVE",
"508 190 OFFCURVE",
"459 420 OFFCURVE",
"446 498 CURVE SMOOTH",
"441 527 OFFCURVE",
"429 546 OFFCURVE",
"402 546 CURVE SMOOTH",
"366 546 OFFCURVE",
"278 347 OFFCURVE",
"221 100 CURVE",
"195 149 OFFCURVE",
"138 434 OFFCURVE",
"128 546 CURVE",
"49 528 LINE",
"52 432 OFFCURVE",
"112 110 OFFCURVE",
"169 17 CURVE SMOOTH",
"183 -6 OFFCURVE",
"197 -10 OFFCURVE",
"215 -10 CURVE SMOOTH"
);
}
);
width = 1180;
}
);
unicode = AA9B;
},
{
glyphname = uniAA9C;
lastChange = "2017-09-11 14:36:03 +0000";
layers = (
{
layerId = UUID0;
paths = (
{
closed = 1;
nodes = (
"265 -10 OFFCURVE",
"281 21 OFFCURVE",
"295 62 CURVE SMOOTH",
"369 278 OFFCURVE",
"428 630 OFFCURVE",
"941 1019 CURVE",
"918 1055 LINE",
"581 814 OFFCURVE",
"347 556 OFFCURVE",
"229 110 CURVE",
"206 151 OFFCURVE",
"133 418 OFFCURVE",
"119 546 CURVE",
"39 528 LINE",
"50 416 OFFCURVE",
"129 99 OFFCURVE",
"179 17 CURVE SMOOTH",
"193 -6 OFFCURVE",
"207 -10 OFFCURVE",
"229 -10 CURVE SMOOTH"
);
}
);
width = 624;
}
);
unicode = AA9C;
},
{
glyphname = uniAA9D;
lastChange = "2017-09-11 14:36:03 +0000";
layers = (
{
layerId = UUID0;
paths = (
{
closed = 1;
nodes = (
"242 -10 OFFCURVE",
"257 14 OFFCURVE",
"267 44 CURVE SMOOTH",
"274 65 OFFCURVE",
"343 367 OFFCURVE",
"380 410 CURVE",
"391 314 OFFCURVE",
"439 94 OFFCURVE",
"476 16 CURVE SMOOTH",
"484 -1 OFFCURVE",
"500 -10 OFFCURVE",
"518 -10 CURVE SMOOTH",
"536 -10 OFFCURVE",
"565 -3 OFFCURVE",
"577 25 CURVE SMOOTH",
"593 62 OFFCURVE",
"628 171 OFFCURVE",
"660 266 CURVE SMOOTH",
"730 473 OFFCURVE",
"865 736 OFFCURVE",
"1239 1019 CURVE",
"1215 1055 LINE",
"931 851 OFFCURVE",
"716 637 OFFCURVE",
"590 304 CURVE SMOOTH",
"557 217 OFFCURVE",
"546 178 OFFCURVE",
"530 122 CURVE",
"504 206 OFFCURVE",
"459 420 OFFCURVE",
"446 498 CURVE SMOOTH",
"441 527 OFFCURVE",
"429 546 OFFCURVE",
"402 546 CURVE SMOOTH",
"366 546 OFFCURVE",
"278 347 OFFCURVE",
"221 100 CURVE",
"195 149 OFFCURVE",
"138 434 OFFCURVE",
"128 546 CURVE",
"49 528 LINE",
"52 432 OFFCURVE",
"112 110 OFFCURVE",
"169 17 CURVE SMOOTH",
"183 -6 OFFCURVE",
"197 -10 OFFCURVE",
"215 -10 CURVE SMOOTH"
);
}
);
width = 921;
}
);
unicode = AA9D;
},
{
glyphname = uniAA9E;
lastChange = "2017-09-11 14:36:03 +0000";
layers = (
{
layerId = UUID0;
paths = (
{
closed = 1;
nodes = (
"301 -10 OFFCURVE",
"370 40 OFFCURVE",
"439 70 CURVE",
"478 12 OFFCURVE",
"522 -10 OFFCURVE",
"564 -10 CURVE SMOOTH",
"627 -10 OFFCURVE",
"661 28 OFFCURVE",
"661 65 CURVE SMOOTH",
"661 110 OFFCURVE",
"623 149 OFFCURVE",
"538 149 CURVE SMOOTH",
"520 149 OFFCURVE",
"502 147 OFFCURVE",
"485 144 CURVE",
"478 178 OFFCURVE",
"477 243 OFFCURVE",
"477 292 CURVE SMOOTH",
"477 344 OFFCURVE",
"481 411 OFFCURVE",
"500 485 CURVE",
"540 443 LINE",
"570 469 LINE",
"516 536 LINE",
"533 586 OFFCURVE",
"557 639 OFFCURVE",
"592 693 CURVE",
"562 703 OFFCURVE",
"530 738 OFFCURVE",
"530 793 CURVE SMOOTH",
"530 904 OFFCURVE",
"611 957 OFFCURVE",
"848 1022 CURVE",
"838 1055 LINE",
"644 1022 OFFCURVE",
"442 935 OFFCURVE",
"442 783 CURVE SMOOTH",
"442 718 OFFCURVE",
"467 680 OFFCURVE",
"512 656 CURVE",
"497 633 OFFCURVE",
"484 611 OFFCURVE",
"473 589 CURVE",
"395 685 LINE SMOOTH",
"376 709 OFFCURVE",
"344 746 OFFCURVE",
"317 746 CURVE SMOOTH",
"298 746 OFFCURVE",
"267 721 OFFCURVE",
"245 702 CURVE SMOOTH",
"-11 481 LINE",
"12 449 LINE",
"68 492 LINE",
"104 377 OFFCURVE",
"106 175 OFFCURVE",
"106 137 CURVE SMOOTH",
"106 26 OFFCURVE",
"150 -10 OFFCURVE",
"226 -10 CURVE SMOOTH"
);
},
{
closed = 1;
nodes = (
"540 44 OFFCURVE",
"521 52 OFFCURVE",
"505 92 CURVE",
"517 94 OFFCURVE",
"529 95 OFFCURVE",
"541 95 CURVE SMOOTH",
"571 95 OFFCURVE",
"587 86 OFFCURVE",
"587 67 CURVE SMOOTH",
"587 51 OFFCURVE",
"572 44 OFFCURVE",
"558 44 CURVE SMOOTH"
);
},
{
closed = 1;
nodes = (
"208 59 OFFCURVE",
"194 70 OFFCURVE",
"194 147 CURVE SMOOTH",
"194 243 OFFCURVE",
"189 442 OFFCURVE",
"140 545 CURVE",
"136 544 LINE",
"230 615 LINE SMOOTH",
"271 646 OFFCURVE",
"297 656 OFFCURVE",
"311 656 CURVE SMOOTH",
"334 656 OFFCURVE",
"359 633 OFFCURVE",
"379 612 CURVE SMOOTH",
"448 540 LINE",
"405 448 OFFCURVE",
"389 369 OFFCURVE",
"389 292 CURVE SMOOTH",
"389 239 OFFCURVE",
"397 168 OFFCURVE",
"413 122 CURVE",
"344 96 OFFCURVE",
"280 59 OFFCURVE",
"242 59 CURVE SMOOTH"
);
}
);
width = 708;
}
);
unicode = AA9E;
},
{
glyphname = uniAA9F;
lastChange = "2017-09-11 14:36:03 +0000";
layers = (
{
layerId = UUID0;
paths = (
{
closed = 1;
nodes = (
"706 -186 OFFCURVE",
"749 -122 OFFCURVE",
"749 -56 CURVE SMOOTH",
"749 9 OFFCURVE",
"688 59 OFFCURVE",
"590 60 CURVE",
"609 110 OFFCURVE",
"635 192 OFFCURVE",
"660 266 CURVE SMOOTH",
"730 473 OFFCURVE",
"865 736 OFFCURVE",
"1239 1019 CURVE",
"1215 1055 LINE",
"931 851 OFFCURVE",
"716 637 OFFCURVE",
"590 304 CURVE SMOOTH",
"557 217 OFFCURVE",
"546 178 OFFCURVE",
"530 122 CURVE",
"504 206 OFFCURVE",
"459 420 OFFCURVE",
"446 498 CURVE SMOOTH",
"441 527 OFFCURVE",
"429 546 OFFCURVE",
"402 546 CURVE SMOOTH",
"366 546 OFFCURVE",
"278 347 OFFCURVE",
"221 100 CURVE",
"195 149 OFFCURVE",
"138 434 OFFCURVE",
"128 546 CURVE",
"49 528 LINE",
"52 432 OFFCURVE",
"112 110 OFFCURVE",
"169 17 CURVE SMOOTH",
"183 -6 OFFCURVE",
"197 -10 OFFCURVE",
"215 -10 CURVE SMOOTH",
"242 -10 OFFCURVE",
"257 14 OFFCURVE",
"267 44 CURVE SMOOTH",
"274 65 OFFCURVE",
"343 367 OFFCURVE",
"380 410 CURVE",
"391 314 OFFCURVE",
"439 94 OFFCURVE",
"476 16 CURVE SMOOTH",
"484 -1 OFFCURVE",
"500 -10 OFFCURVE",
"518 -10 CURVE SMOOTH",
"527 -10 OFFCURVE",
"538 -8 OFFCURVE",
"549 -3 CURVE",
"558 -3 OFFCURVE",
"566 -2 OFFCURVE",
"575 -2 CURVE SMOOTH",
"631 -2 OFFCURVE",
"675 -23 OFFCURVE",
"675 -63 CURVE SMOOTH",
"675 -123 OFFCURVE",
"619 -132 OFFCURVE",
"577 -132 CURVE SMOOTH",
"544 -132 OFFCURVE",
"505 -121 OFFCURVE",
"480 -103 CURVE",
"458 -134 LINE",
"489 -160 OFFCURVE",
"533 -186 OFFCURVE",
"585 -186 CURVE SMOOTH"
);
}
);
width = 921;
}
);
unicode = AA9F;
},
{
glyphname = uniAAA0;
lastChange = "2017-09-11 14:36:03 +0000";
layers = (
{
layerId = UUID0;
paths = (
{
closed = 1;
nodes = (
"301 -10 OFFCURVE",
"370 40 OFFCURVE",
"439 70 CURVE",
"478 12 OFFCURVE",
"522 -10 OFFCURVE",
"564 -10 CURVE SMOOTH",
"627 -10 OFFCURVE",
"661 28 OFFCURVE",
"661 65 CURVE SMOOTH",
"661 110 OFFCURVE",
"623 149 OFFCURVE",
"538 149 CURVE SMOOTH",
"520 149 OFFCURVE",
"502 147 OFFCURVE",
"485 144 CURVE",
"478 178 OFFCURVE",
"477 243 OFFCURVE",
"477 292 CURVE SMOOTH",
"477 346 OFFCURVE",
"483 414 OFFCURVE",
"498 488 CURVE",
"540 443 LINE",
"570 469 LINE",
"510 543 LINE",
"552 715 OFFCURVE",
"639 905 OFFCURVE",
"793 1019 CURVE",
"770 1055 LINE",
"602 933 OFFCURVE",
"501 778 OFFCURVE",
"446 622 CURVE",
"395 685 LINE SMOOTH",
"376 709 OFFCURVE",
"344 746 OFFCURVE",
"317 746 CURVE SMOOTH",
"298 746 OFFCURVE",
"267 721 OFFCURVE",
"245 702 CURVE SMOOTH",
"-11 481 LINE",
"12 449 LINE",
"68 492 LINE",
"104 377 OFFCURVE",
"106 175 OFFCURVE",
"106 137 CURVE SMOOTH",
"106 26 OFFCURVE",
"150 -10 OFFCURVE",
"226 -10 CURVE SMOOTH"
);
},
{
closed = 1;
nodes = (
"540 44 OFFCURVE",
"521 52 OFFCURVE",
"505 92 CURVE",
"517 94 OFFCURVE",
"529 95 OFFCURVE",
"541 95 CURVE SMOOTH",
"571 95 OFFCURVE",
"587 86 OFFCURVE",
"587 67 CURVE SMOOTH",
"587 51 OFFCURVE",
"572 44 OFFCURVE",
"558 44 CURVE SMOOTH"
);
},
{
closed = 1;
nodes = (
"208 59 OFFCURVE",
"194 70 OFFCURVE",
"194 147 CURVE SMOOTH",
"194 243 OFFCURVE",
"189 442 OFFCURVE",
"140 545 CURVE",
"136 544 LINE",
"230 615 LINE SMOOTH",
"271 646 OFFCURVE",
"297 656 OFFCURVE",
"311 656 CURVE SMOOTH",
"334 656 OFFCURVE",
"359 633 OFFCURVE",
"379 612 CURVE SMOOTH",
"427 562 LINE",
"400 468 OFFCURVE",
"389 375 OFFCURVE",
"389 292 CURVE SMOOTH",
"389 239 OFFCURVE",
"397 168 OFFCURVE",
"413 122 CURVE",
"344 96 OFFCURVE",
"280 59 OFFCURVE",
"242 59 CURVE SMOOTH"
);
}
);
width = 674;
}
);
unicode = AAA0;
},
{
glyphname = uniAAA1;
lastChange = "2017-09-11 14:36:03 +0000";
layers = (
{
layerId = UUID0;
paths = (
{
closed = 1;
nodes = (
"242 -10 OFFCURVE",
"257 14 OFFCURVE",
"267 44 CURVE SMOOTH",
"274 65 OFFCURVE",
"343 367 OFFCURVE",
"380 410 CURVE",
"387 351 OFFCURVE",
"408 245 OFFCURVE",
"431 154 CURVE SMOOTH",
"451 74 OFFCURVE",
"480 -10 OFFCURVE",
"543 -10 CURVE SMOOTH",
"605 -10 OFFCURVE",
"643 17 OFFCURVE",
"710 53 CURVE",
"742 9 OFFCURVE",
"787 -10 OFFCURVE",
"834 -10 CURVE SMOOTH",
"889 -10 OFFCURVE",
"947 21 OFFCURVE",
"947 74 CURVE SMOOTH",
"947 112 OFFCURVE",
"917 155 OFFCURVE",
"836 155 CURVE SMOOTH",
"805 155 OFFCURVE",
"780 149 OFFCURVE",
"757 141 CURVE",
"750 175 OFFCURVE",
"747 216 OFFCURVE",
"747 265 CURVE SMOOTH",
"747 577 OFFCURVE",
"930 867 OFFCURVE",
"1160 1019 CURVE",
"1136 1055 LINE",
"806 838 OFFCURVE",
"659 522 OFFCURVE",
"659 247 CURVE SMOOTH",
"659 187 OFFCURVE",
"668 140 OFFCURVE",
"683 103 CURVE",
"647 78 OFFCURVE",
"616 60 OFFCURVE",
"583 60 CURVE SMOOTH",
"549 60 OFFCURVE",
"527 116 OFFCURVE",
"511 187 CURVE SMOOTH",
"488 289 OFFCURVE",
"456 438 OFFCURVE",
"446 498 CURVE SMOOTH",
"441 527 OFFCURVE",
"429 546 OFFCURVE",
"402 546 CURVE SMOOTH",
"366 546 OFFCURVE",
"278 347 OFFCURVE",
"221 100 CURVE",
"195 149 OFFCURVE",
"138 434 OFFCURVE",
"128 546 CURVE",
"49 528 LINE",
"52 432 OFFCURVE",
"112 110 OFFCURVE",
"169 17 CURVE SMOOTH",
"183 -6 OFFCURVE",
"197 -10 OFFCURVE",
"215 -10 CURVE SMOOTH"
);
},
{
closed = 1;
nodes = (
"806 44 OFFCURVE",
"786 60 OFFCURVE",
"772 90 CURVE",
"789 97 OFFCURVE",
"808 101 OFFCURVE",
"830 101 CURVE SMOOTH",
"866 101 OFFCURVE",
"875 84 OFFCURVE",
"875 70 CURVE SMOOTH",
"875 59 OFFCURVE",
"859 44 OFFCURVE",
"831 44 CURVE SMOOTH"
);
}
);
width = 972;
}
);
unicode = AAA1;
},
{
glyphname = uniAAA2;
lastChange = "2017-09-11 14:36:03 +0000";
layers = (
{
layerId = UUID0;
paths = (
{
closed = 1;
nodes = (
"621 -20 OFFCURVE",
"666 5 OFFCURVE",
"694 42 CURVE",
"743 17 OFFCURVE",
"779 -10 OFFCURVE",
"832 -10 CURVE SMOOTH",
"921 -10 OFFCURVE",
"970 49 OFFCURVE",
"979 177 CURVE SMOOTH",
"992 353 OFFCURVE",
"1019 528 OFFCURVE",
"1148 646 CURVE",
"1125 676 LINE",
"937 511 OFFCURVE",
"909 308 OFFCURVE",
"896 167 CURVE SMOOTH",
"889 90 OFFCURVE",
"860 59 OFFCURVE",
"826 59 CURVE SMOOTH",
"791 59 OFFCURVE",
"762 79 OFFCURVE",
"722 99 CURVE",
"731 145 OFFCURVE",
"739 211 OFFCURVE",
"739 262 CURVE SMOOTH",
"739 413 OFFCURVE",
"688 546 OFFCURVE",
"562 546 CURVE SMOOTH",
"515 546 OFFCURVE",
"456 516 OFFCURVE",
"419 487 CURVE",
"418 503 OFFCURVE",
"417 520 OFFCURVE",
"415 536 CURVE",
"325 506 LINE",
"331 466 OFFCURVE",
"335 414 OFFCURVE",
"335 358 CURVE SMOOTH",
"335 217 OFFCURVE",
"326 59 OFFCURVE",
"224 59 CURVE SMOOTH",
"172 59 OFFCURVE",
"161 125 OFFCURVE",
"161 201 CURVE SMOOTH",
"161 287 OFFCURVE",
"167 360 OFFCURVE",
"167 417 CURVE SMOOTH",
"167 466 OFFCURVE",
"163 507 OFFCURVE",
"145 545 CURVE",
"59 517 LINE",
"74 484 OFFCURVE",
"79 445 OFFCURVE",
"79 402 CURVE SMOOTH",
"79 337 OFFCURVE",
"73 260 OFFCURVE",
"73 195 CURVE SMOOTH",
"73 84 OFFCURVE",
"109 -10 OFFCURVE",
"206 -10 CURVE SMOOTH",
"346 -10 OFFCURVE",
"423 163 OFFCURVE",
"423 390 CURVE SMOOTH",
"423 407 OFFCURVE",
"423 425 OFFCURVE",
"422 443 CURVE",
"454 463 OFFCURVE",
"504 478 OFFCURVE",
"534 478 CURVE SMOOTH",
"631 478 OFFCURVE",
"651 359 OFFCURVE",
"651 259 CURVE SMOOTH",
"651 202 OFFCURVE",
"650 171 OFFCURVE",
"643 132 CURVE",
"617 140 OFFCURVE",
"589 145 OFFCURVE",
"557 145 CURVE SMOOTH",
"475 145 OFFCURVE",
"444 104 OFFCURVE",
"444 58 CURVE SMOOTH",
"444 19 OFFCURVE",
"484 -20 OFFCURVE",
"562 -20 CURVE SMOOTH"
);
},
{
closed = 1;
nodes = (
"533 34 OFFCURVE",
"518 44 OFFCURVE",
"518 61 CURVE SMOOTH",
"518 74 OFFCURVE",
"526 91 OFFCURVE",
"562 91 CURVE SMOOTH",
"583 91 OFFCURVE",
"604 85 OFFCURVE",
"627 76 CURVE",
"613 49 OFFCURVE",
"592 34 OFFCURVE",
"562 34 CURVE SMOOTH"
);
}
);
width = 1148;
}
);
unicode = AAA2;
},
{
glyphname = uniAAA3;
lastChange = "2017-09-11 14:36:03 +0000";
layers = (
{
layerId = UUID0;
paths = (
{
closed = 1;
nodes = (
"200 -20 OFFCURVE",
"246 5 OFFCURVE",
"274 42 CURVE",
"323 17 OFFCURVE",
"378 -10 OFFCURVE",
"431 -10 CURVE SMOOTH",
"520 -10 OFFCURVE",
"593 27 OFFCURVE",
"601 155 CURVE SMOOTH",
"614 364 OFFCURVE",
"643 528 OFFCURVE",
"772 646 CURVE",
"749 676 LINE",
"557 505 OFFCURVE",
"532 290 OFFCURVE",
"515 150 CURVE SMOOTH",
"504 61 OFFCURVE",
"459 59 OFFCURVE",
"425 59 CURVE SMOOTH",
"390 59 OFFCURVE",
"342 79 OFFCURVE",
"302 99 CURVE",
"312 146 OFFCURVE",
"316 196 OFFCURVE",
"316 249 CURVE SMOOTH",
"316 349 OFFCURVE",
"300 454 OFFCURVE",
"272 545 CURVE",
"187 517 LINE",
"211 428 OFFCURVE",
"229 325 OFFCURVE",
"229 225 CURVE SMOOTH",
"229 197 OFFCURVE",
"227 158 OFFCURVE",
"224 132 CURVE",
"199 140 OFFCURVE",
"169 145 OFFCURVE",
"137 145 CURVE SMOOTH",
"55 145 OFFCURVE",
"24 104 OFFCURVE",
"24 58 CURVE SMOOTH",
"24 18 OFFCURVE",
"65 -20 OFFCURVE",
"142 -20 CURVE SMOOTH"
);
},
{
closed = 1;
nodes = (
"113 34 OFFCURVE",
"98 44 OFFCURVE",
"98 61 CURVE SMOOTH",
"98 74 OFFCURVE",
"106 91 OFFCURVE",
"143 91 CURVE SMOOTH",
"163 91 OFFCURVE",
"185 85 OFFCURVE",
"207 76 CURVE",
"193 49 OFFCURVE",
"172 34 OFFCURVE",
"142 34 CURVE SMOOTH"
);
}
);
width = 772;
}
);
unicode = AAA3;
},
{
glyphname = uniAAA4;
lastChange = "2017-09-11 14:36:03 +0000";
layers = (
{
layerId = UUID0;
paths = (
{
closed = 1;
nodes = (
"265 -10 OFFCURVE",
"281 21 OFFCURVE",
"295 62 CURVE SMOOTH",
"334 175 OFFCURVE",
"370 327 OFFCURVE",
"469 502 CURVE",
"525 443 LINE",
"555 469 LINE",
"494 544 LINE",
"584 690 OFFCURVE",
"720 851 OFFCURVE",
"941 1019 CURVE",
"918 1055 LINE",
"728 919 OFFCURVE",
"571 778 OFFCURVE",
"449 600 CURVE",
"380 685 LINE SMOOTH",
"361 708 OFFCURVE",
"330 746 OFFCURVE",
"303 746 CURVE SMOOTH",
"284 746 OFFCURVE",
"252 721 OFFCURVE",
"230 702 CURVE SMOOTH",
"-26 481 LINE",
"-2 449 LINE",
"45 485 LINE",
"67 350 OFFCURVE",
"135 90 OFFCURVE",
"179 17 CURVE SMOOTH",
"193 -6 OFFCURVE",
"207 -10 OFFCURVE",
"229 -10 CURVE SMOOTH"
);
},
{
closed = 1;
nodes = (
"206 151 OFFCURVE",
"135 412 OFFCURVE",
"119 542 CURVE",
"215 615 LINE SMOOTH",
"256 646 OFFCURVE",
"282 656 OFFCURVE",
"296 656 CURVE SMOOTH",
"319 656 OFFCURVE",
"345 633 OFFCURVE",
"365 612 CURVE SMOOTH",
"419 555 LINE",
"338 429 OFFCURVE",
"275 284 OFFCURVE",
"229 110 CURVE"
);
}
);
width = 624;
}
);
unicode = AAA4;
},
{
glyphname = uniAAA5;
lastChange = "2017-09-11 14:36:03 +0000";
layers = (
{
layerId = UUID0;
paths = (
{
closed = 1;
nodes = (
"265 -10 OFFCURVE",
"277 14 OFFCURVE",
"286 44 CURVE SMOOTH",
"294 71 OFFCURVE",
"309 142 OFFCURVE",
"333 222 CURVE SMOOTH",
"360 312 OFFCURVE",
"399 420 OFFCURVE",
"456 515 CURVE",
"525 443 LINE",
"555 469 LINE",
"483 558 LINE",
"505 590 OFFCURVE",
"529 620 OFFCURVE",
"556 646 CURVE",
"532 676 LINE",
"502 651 OFFCURVE",
"475 625 OFFCURVE",
"451 597 CURVE",
"380 685 LINE SMOOTH",
"361 708 OFFCURVE",
"330 746 OFFCURVE",
"303 746 CURVE SMOOTH",
"284 746 OFFCURVE",
"252 721 OFFCURVE",
"230 702 CURVE SMOOTH",
"-26 481 LINE",
"-2 449 LINE",
"45 485 LINE",
"67 350 OFFCURVE",
"134 90 OFFCURVE",
"179 17 CURVE SMOOTH",
"193 -6 OFFCURVE",
"207 -10 OFFCURVE",
"229 -10 CURVE SMOOTH"
);
},
{
closed = 1;
nodes = (
"206 151 OFFCURVE",
"135 412 OFFCURVE",
"119 542 CURVE",
"215 615 LINE SMOOTH",
"256 646 OFFCURVE",
"282 656 OFFCURVE",
"296 656 CURVE SMOOTH",
"319 656 OFFCURVE",
"345 633 OFFCURVE",
"365 612 CURVE SMOOTH",
"417 557 LINE",
"304 409 OFFCURVE",
"262 239 OFFCURVE",
"229 110 CURVE"
);
}
);
width = 556;
}
);
unicode = AAA5;
},
{
glyphname = uniAAA6;
lastChange = "2017-09-11 14:36:03 +0000";
layers = (
{
layerId = UUID0;
paths = (
{
closed = 1;
nodes = (
"300 83 OFFCURVE",
"316 187 OFFCURVE",
"316 288 CURVE SMOOTH",
"316 340 OFFCURVE",
"312 391 OFFCURVE",
"302 437 CURVE",
"342 458 OFFCURVE",
"402 478 OFFCURVE",
"445 478 CURVE SMOOTH",
"528 478 OFFCURVE",
"547 439 OFFCURVE",
"547 335 CURVE SMOOTH",
"547 250 OFFCURVE",
"541 181 OFFCURVE",
"541 124 CURVE SMOOTH",
"541 75 OFFCURVE",
"545 34 OFFCURVE",
"562 -4 CURVE",
"649 24 LINE",
"633 57 OFFCURVE",
"628 96 OFFCURVE",
"628 139 CURVE SMOOTH",
"628 204 OFFCURVE",
"635 276 OFFCURVE",
"635 341 CURVE SMOOTH",
"635 458 OFFCURVE",
"585 546 OFFCURVE",
"450 546 CURVE SMOOTH",
"395 546 OFFCURVE",
"323 520 OFFCURVE",
"274 494 CURVE",
"246 531 OFFCURVE",
"200 556 OFFCURVE",
"142 556 CURVE SMOOTH",
"65 556 OFFCURVE",
"24 519 OFFCURVE",
"24 479 CURVE SMOOTH",
"24 433 OFFCURVE",
"55 391 OFFCURVE",
"137 391 CURVE SMOOTH",
"169 391 OFFCURVE",
"199 396 OFFCURVE",
"224 404 CURVE",
"227 378 OFFCURVE",
"229 339 OFFCURVE",
"229 311 CURVE SMOOTH",
"229 211 OFFCURVE",
"211 108 OFFCURVE",
"187 20 CURVE",
"272 -9 LINE"
);
},
{
closed = 1;
nodes = (
"106 445 OFFCURVE",
"98 462 OFFCURVE",
"98 476 CURVE SMOOTH",
"98 492 OFFCURVE",
"113 502 OFFCURVE",
"142 502 CURVE SMOOTH",
"172 502 OFFCURVE",
"193 487 OFFCURVE",
"207 460 CURVE",
"185 451 OFFCURVE",
"163 445 OFFCURVE",
"143 445 CURVE SMOOTH"
);
}
);
width = 708;
}
);
unicode = AAA6;
},
{
glyphname = uniAAA7;
lastChange = "2017-09-11 14:36:03 +0000";
layers = (
{
layerId = UUID0;
paths = (
{
closed = 1;
nodes = (
"498 -55 OFFCURVE",
"537 -3 OFFCURVE",
"582 35 CURVE",
"607 1 OFFCURVE",
"646 -20 OFFCURVE",
"700 -20 CURVE SMOOTH",
"772 -20 OFFCURVE",
"821 23 OFFCURVE",
"821 62 CURVE SMOOTH",
"821 107 OFFCURVE",
"790 145 OFFCURVE",
"708 145 CURVE SMOOTH",
"683 145 OFFCURVE",
"657 139 OFFCURVE",
"632 128 CURVE",
"630 148 OFFCURVE",
"629 168 OFFCURVE",
"629 188 CURVE SMOOTH",
"629 240 OFFCURVE",
"635 291 OFFCURVE",
"635 341 CURVE SMOOTH",
"635 458 OFFCURVE",
"585 546 OFFCURVE",
"450 546 CURVE SMOOTH",
"395 546 OFFCURVE",
"323 520 OFFCURVE",
"274 494 CURVE",
"246 531 OFFCURVE",
"200 556 OFFCURVE",
"142 556 CURVE SMOOTH",
"65 556 OFFCURVE",
"24 519 OFFCURVE",
"24 479 CURVE SMOOTH",
"24 433 OFFCURVE",
"55 391 OFFCURVE",
"137 391 CURVE SMOOTH",
"169 391 OFFCURVE",
"199 396 OFFCURVE",
"224 404 CURVE",
"227 378 OFFCURVE",
"229 339 OFFCURVE",
"229 311 CURVE SMOOTH",
"229 211 OFFCURVE",
"211 108 OFFCURVE",
"187 20 CURVE",
"272 -9 LINE",
"300 83 OFFCURVE",
"316 187 OFFCURVE",
"316 288 CURVE SMOOTH",
"316 340 OFFCURVE",
"312 391 OFFCURVE",
"302 437 CURVE",
"342 458 OFFCURVE",
"402 478 OFFCURVE",
"445 478 CURVE SMOOTH",
"528 478 OFFCURVE",
"547 439 OFFCURVE",
"547 335 CURVE SMOOTH",
"547 273 OFFCURVE",
"541 229 OFFCURVE",
"541 181 CURVE SMOOTH",
"541 146 OFFCURVE",
"546 111 OFFCURVE",
"557 81 CURVE",
"502 37 OFFCURVE",
"456 -22 OFFCURVE",
"428 -71 CURVE",
"472 -94 LINE"
);
},
{
closed = 1;
nodes = (
"106 445 OFFCURVE",
"98 462 OFFCURVE",
"98 476 CURVE SMOOTH",
"98 492 OFFCURVE",
"113 502 OFFCURVE",
"142 502 CURVE SMOOTH",
"172 502 OFFCURVE",
"193 487 OFFCURVE",
"207 460 CURVE",
"185 451 OFFCURVE",
"163 445 OFFCURVE",
"143 445 CURVE SMOOTH"
);
},
{
closed = 1;
nodes = (
"677 34 OFFCURVE",
"658 50 OFFCURVE",
"646 78 CURVE",
"665 86 OFFCURVE",
"684 91 OFFCURVE",
"703 91 CURVE SMOOTH",
"739 91 OFFCURVE",
"748 74 OFFCURVE",
"748 61 CURVE SMOOTH",
"748 44 OFFCURVE",
"732 34 OFFCURVE",
"703 34 CURVE SMOOTH"
);
}
);
width = 845;
}
);
unicode = AAA7;
},
{
glyphname = uniAAA8;
lastChange = "2017-09-11 14:36:03 +0000";
layers = (
{
layerId = UUID0;
paths = (
{
closed = 1;
nodes = (
"879 -255 LINE",
"722 -174 OFFCURVE",
"665 -113 OFFCURVE",
"665 31 CURVE SMOOTH",
"665 116 OFFCURVE",
"703 278 OFFCURVE",
"703 375 CURVE SMOOTH",
"703 486 OFFCURVE",
"653 546 OFFCURVE",
"562 546 CURVE SMOOTH",
"517 546 OFFCURVE",
"464 524 OFFCURVE",
"419 491 CURVE",
"418 506 OFFCURVE",
"416 521 OFFCURVE",
"415 536 CURVE",
"325 506 LINE",
"331 466 OFFCURVE",
"335 414 OFFCURVE",
"335 358 CURVE SMOOTH",
"335 217 OFFCURVE",
"326 59 OFFCURVE",
"224 59 CURVE SMOOTH",
"172 59 OFFCURVE",
"161 125 OFFCURVE",
"161 201 CURVE SMOOTH",
"161 287 OFFCURVE",
"167 360 OFFCURVE",
"167 417 CURVE SMOOTH",
"167 466 OFFCURVE",
"163 507 OFFCURVE",
"145 545 CURVE",
"59 517 LINE",
"74 484 OFFCURVE",
"79 445 OFFCURVE",
"79 402 CURVE SMOOTH",
"79 337 OFFCURVE",
"73 260 OFFCURVE",
"73 195 CURVE SMOOTH",
"73 84 OFFCURVE",
"109 -10 OFFCURVE",
"206 -10 CURVE SMOOTH",
"346 -10 OFFCURVE",
"423 163 OFFCURVE",
"423 390 CURVE SMOOTH",
"423 404 OFFCURVE",
"423 419 OFFCURVE",
"422 433 CURVE",
"454 461 OFFCURVE",
"494 478 OFFCURVE",
"536 478 CURVE SMOOTH",
"599 478 OFFCURVE",
"615 445 OFFCURVE",
"615 369 CURVE SMOOTH",
"615 258 OFFCURVE",
"577 157 OFFCURVE",
"577 53 CURVE SMOOTH",
"577 -152 OFFCURVE",
"702 -216 OFFCURVE",
"856 -293 CURVE"
);
}
);
width = 801;
}
);
unicode = AAA8;
},
{
glyphname = uniAAA9;
lastChange = "2017-09-11 14:36:03 +0000";
layers = (
{
layerId = UUID0;
paths = (
{
closed = 1;
nodes = (
"377 17 LINE",
"409 192 OFFCURVE",
"462 353 OFFCURVE",
"615 512 CURVE",
"596 546 LINE",
"496 465 OFFCURVE",
"422 374 OFFCURVE",
"367 266 CURVE",
"360 264 OFFCURVE",
"353 263 OFFCURVE",
"344 263 CURVE SMOOTH",
"269 263 OFFCURVE",
"345 546 OFFCURVE",
"178 546 CURVE SMOOTH",
"126 546 OFFCURVE",
"59 508 OFFCURVE",
"24 479 CURVE",
"46 448 LINE",
"78 466 OFFCURVE",
"122 478 OFFCURVE",
"149 478 CURVE SMOOTH",
"255 478 OFFCURVE",
"180 195 OFFCURVE",
"332 195 CURVE SMOOTH",
"335 195 LINE",
"310 132 OFFCURVE",
"290 64 OFFCURVE",
"275 -10 CURVE"
);
}
);
width = 664;
}
);
unicode = AAA9;
},
{
glyphname = uniAAAA;
lastChange = "2017-09-11 14:36:03 +0000";
layers = (
{
layerId = UUID0;
paths = (
{
closed = 1;
nodes = (
"346 -10 OFFCURVE",
"423 163 OFFCURVE",
"423 390 CURVE SMOOTH",
"423 407 OFFCURVE",
"423 425 OFFCURVE",
"422 443 CURVE",
"454 463 OFFCURVE",
"504 478 OFFCURVE",
"534 478 CURVE SMOOTH",
"569 478 OFFCURVE",
"591 448 OFFCURVE",
"591 417 CURVE SMOOTH",
"591 299 OFFCURVE",
"555 201 OFFCURVE",
"555 125 CURVE SMOOTH",
"555 45 OFFCURVE",
"589 -10 OFFCURVE",
"674 -10 CURVE SMOOTH",
"770 -10 OFFCURVE",
"839 76 OFFCURVE",
"875 191 CURVE SMOOTH",
"912 310 OFFCURVE",
"945 477 OFFCURVE",
"1006 477 CURVE SMOOTH",
"1076 477 OFFCURVE",
"1088 368 OFFCURVE",
"1088 260 CURVE SMOOTH",
"1088 152 OFFCURVE",
"1058 44 OFFCURVE",
"998 44 CURVE SMOOTH",
"960 44 OFFCURVE",
"934 73 OFFCURVE",
"916 96 CURVE",
"883 76 LINE",
"899 45 OFFCURVE",
"944 -10 OFFCURVE",
"1014 -10 CURVE SMOOTH",
"1117 -10 OFFCURVE",
"1176 127 OFFCURVE",
"1176 266 CURVE SMOOTH",
"1176 405 OFFCURVE",
"1135 545 OFFCURVE",
"1024 545 CURVE SMOOTH",
"911 545 OFFCURVE",
"859 440 OFFCURVE",
"818 284 CURVE SMOOTH",
"796 200 OFFCURVE",
"757 59 OFFCURVE",
"690 59 CURVE SMOOTH",
"656 59 OFFCURVE",
"643 80 OFFCURVE",
"643 123 CURVE SMOOTH",
"643 199 OFFCURVE",
"679 326 OFFCURVE",
"679 425 CURVE SMOOTH",
"679 475 OFFCURVE",
"644 546 OFFCURVE",
"562 546 CURVE SMOOTH",
"515 546 OFFCURVE",
"456 516 OFFCURVE",
"419 487 CURVE",
"418 503 OFFCURVE",
"417 520 OFFCURVE",
"415 536 CURVE",
"325 506 LINE",
"331 466 OFFCURVE",
"335 414 OFFCURVE",
"335 358 CURVE SMOOTH",
"335 217 OFFCURVE",
"326 59 OFFCURVE",
"224 59 CURVE SMOOTH",
"172 59 OFFCURVE",
"161 125 OFFCURVE",
"161 201 CURVE SMOOTH",
"161 287 OFFCURVE",
"167 360 OFFCURVE",
"167 417 CURVE SMOOTH",
"167 466 OFFCURVE",
"163 507 OFFCURVE",
"145 545 CURVE",
"59 517 LINE",
"74 484 OFFCURVE",
"79 445 OFFCURVE",
"79 402 CURVE SMOOTH",
"79 337 OFFCURVE",
"73 260 OFFCURVE",
"73 195 CURVE SMOOTH",
"73 84 OFFCURVE",
"109 -10 OFFCURVE",
"206 -10 CURVE SMOOTH"
);
}
);
width = 1234;
}
);
unicode = AAAA;
},
{
glyphname = uniAAAB;
lastChange = "2017-09-11 14:36:03 +0000";
layers = (
{
layerId = UUID0;
paths = (
{
closed = 1;
nodes = (
"446 -10 OFFCURVE",
"553 175 OFFCURVE",
"553 328 CURVE SMOOTH",
"553 434 OFFCURVE",
"505 546 OFFCURVE",
"345 546 CURVE SMOOTH",
"154 546 OFFCURVE",
"55 366 OFFCURVE",
"39 335 CURVE",
"76 315 LINE",
"112 371 OFFCURVE",
"202 478 OFFCURVE",
"337 478 CURVE SMOOTH",
"420 478 OFFCURVE",
"465 421 OFFCURVE",
"465 326 CURVE SMOOTH",
"465 190 OFFCURVE",
"400 59 OFFCURVE",
"292 59 CURVE SMOOTH",
"236 59 OFFCURVE",
"190 79 OFFCURVE",
"187 156 CURVE",
"102 140 LINE",
"109 42 OFFCURVE",
"169 -10 OFFCURVE",
"274 -10 CURVE SMOOTH"
);
}
);
width = 611;
}
);
unicode = AAAB;
},
{
glyphname = uniAAAC;
lastChange = "2017-09-11 14:36:03 +0000";
layers = (
{
layerId = UUID0;
paths = (
{
closed = 1;
nodes = (
"356 -10 OFFCURVE",
"433 163 OFFCURVE",
"433 390 CURVE SMOOTH",
"433 402 OFFCURVE",
"433 414 OFFCURVE",
"432 427 CURVE",
"473 461 OFFCURVE",
"519 478 OFFCURVE",
"566 478 CURVE SMOOTH",
"629 478 OFFCURVE",
"642 426 OFFCURVE",
"642 335 CURVE SMOOTH",
"642 250 OFFCURVE",
"635 181 OFFCURVE",
"635 124 CURVE SMOOTH",
"635 75 OFFCURVE",
"640 34 OFFCURVE",
"657 -4 CURVE",
"744 24 LINE",
"728 57 OFFCURVE",
"723 96 OFFCURVE",
"723 139 CURVE SMOOTH",
"723 204 OFFCURVE",
"729 276 OFFCURVE",
"729 341 CURVE SMOOTH",
"729 452 OFFCURVE",
"689 546 OFFCURVE",
"593 546 CURVE SMOOTH",
"539 546 OFFCURVE",
"476 518 OFFCURVE",
"429 483 CURVE",
"428 500 OFFCURVE",
"426 518 OFFCURVE",
"424 536 CURVE",
"335 506 LINE",
"341 466 OFFCURVE",
"345 414 OFFCURVE",
"345 358 CURVE SMOOTH",
"345 217 OFFCURVE",
"335 59 OFFCURVE",
"233 59 CURVE SMOOTH",
"182 59 OFFCURVE",
"161 125 OFFCURVE",
"161 201 CURVE SMOOTH",
"161 287 OFFCURVE",
"167 360 OFFCURVE",
"167 417 CURVE SMOOTH",
"167 466 OFFCURVE",
"163 507 OFFCURVE",
"145 545 CURVE",
"59 517 LINE",
"74 484 OFFCURVE",
"79 445 OFFCURVE",
"79 402 CURVE SMOOTH",
"79 337 OFFCURVE",
"73 260 OFFCURVE",
"73 195 CURVE SMOOTH",
"73 84 OFFCURVE",
"119 -10 OFFCURVE",
"215 -10 CURVE SMOOTH"
);
}
);
width = 802;
}
);
unicode = AAAC;
},
{
glyphname = uniAAAD;
lastChange = "2017-09-11 14:36:03 +0000";
layers = (
{
layerId = UUID0;
paths = (
{
closed = 1;
nodes = (
"285 -10 OFFCURVE",
"342 67 OFFCURVE",
"379 187 CURVE SMOOTH",
"415 305 OFFCURVE",
"453 477 OFFCURVE",
"526 477 CURVE SMOOTH",
"604 477 OFFCURVE",
"638 368 OFFCURVE",
"638 260 CURVE SMOOTH",
"638 152 OFFCURVE",
"600 44 OFFCURVE",
"540 44 CURVE SMOOTH",
"503 44 OFFCURVE",
"477 73 OFFCURVE",
"458 96 CURVE",
"426 76 LINE",
"441 45 OFFCURVE",
"486 -10 OFFCURVE",
"557 -10 CURVE SMOOTH",
"668 -10 OFFCURVE",
"726 127 OFFCURVE",
"726 266 CURVE SMOOTH",
"726 405 OFFCURVE",
"667 545 OFFCURVE",
"544 545 CURVE SMOOTH",
"432 545 OFFCURVE",
"379 440 OFFCURVE",
"338 284 CURVE SMOOTH",
"316 201 OFFCURVE",
"280 59 OFFCURVE",
"214 59 CURVE SMOOTH",
"162 59 OFFCURVE",
"151 125 OFFCURVE",
"151 201 CURVE SMOOTH",
"151 287 OFFCURVE",
"157 360 OFFCURVE",
"157 417 CURVE SMOOTH",
"157 466 OFFCURVE",
"153 507 OFFCURVE",
"135 545 CURVE",
"49 517 LINE",
"64 484 OFFCURVE",
"69 445 OFFCURVE",
"69 402 CURVE SMOOTH",
"69 337 OFFCURVE",
"63 260 OFFCURVE",
"63 195 CURVE SMOOTH",
"63 84 OFFCURVE",
"100 -10 OFFCURVE",
"196 -10 CURVE SMOOTH"
);
}
);
width = 784;
}
);
unicode = AAAD;
},
{
glyphname = uniAAAE;
lastChange = "2017-09-11 14:36:03 +0000";
layers = (
{
layerId = UUID0;
paths = (
{
closed = 1;
nodes = (
"438 -10 OFFCURVE",
"559 149 OFFCURVE",
"559 328 CURVE SMOOTH",
"559 344 OFFCURVE",
"558 361 OFFCURVE",
"555 377 CURVE",
"574 386 OFFCURVE",
"591 396 OFFCURVE",
"608 406 CURVE",
"594 448 LINE",
"577 439 OFFCURVE",
"560 431 OFFCURVE",
"544 423 CURVE",
"520 492 OFFCURVE",
"463 546 OFFCURVE",
"351 546 CURVE SMOOTH",
"224 546 OFFCURVE",
"145 466 OFFCURVE",
"145 396 CURVE SMOOTH",
"145 345 OFFCURVE",
"188 295 OFFCURVE",
"282 295 CURVE SMOOTH",
"327 295 OFFCURVE",
"397 312 OFFCURVE",
"471 340 CURVE",
"471 326 LINE SMOOTH",
"471 195 OFFCURVE",
"409 59 OFFCURVE",
"259 59 CURVE SMOOTH",
"188 59 OFFCURVE",
"107 94 OFFCURVE",
"107 189 CURVE SMOOTH",
"107 208 OFFCURVE",
"111 226 OFFCURVE",
"118 243 CURVE",
"66 271 LINE",
"54 243 OFFCURVE",
"49 214 OFFCURVE",
"49 187 CURVE SMOOTH",
"49 81 OFFCURVE",
"123 -10 OFFCURVE",
"252 -10 CURVE SMOOTH"
);
},
{
closed = 1;
nodes = (
"243 349 OFFCURVE",
"218 371 OFFCURVE",
"218 397 CURVE SMOOTH",
"218 434 OFFCURVE",
"266 478 OFFCURVE",
"344 478 CURVE SMOOTH",
"407 478 OFFCURVE",
"447 445 OFFCURVE",
"463 389 CURVE",
"393 362 OFFCURVE",
"335 349 OFFCURVE",
"299 349 CURVE SMOOTH"
);
}
);
width = 618;
}
);
unicode = AAAE;
},
{
glyphname = uniAAAF;
lastChange = "2017-09-11 14:36:03 +0000";
layers = (
{
layerId = UUID0;
paths = (
{
closed = 1;
nodes = (
"585 -186 OFFCURVE",
"791 72 OFFCURVE",
"791 310 CURVE SMOOTH",
"791 458 OFFCURVE",
"706 465 OFFCURVE",
"673 465 CURVE SMOOTH",
"628 465 OFFCURVE",
"581 440 OFFCURVE",
"544 423 CURVE",
"520 492 OFFCURVE",
"462 546 OFFCURVE",
"351 546 CURVE SMOOTH",
"224 546 OFFCURVE",
"145 466 OFFCURVE",
"145 396 CURVE SMOOTH",
"145 345 OFFCURVE",
"188 295 OFFCURVE",
"282 295 CURVE SMOOTH",
"327 295 OFFCURVE",
"397 312 OFFCURVE",
"471 340 CURVE",
"471 326 LINE SMOOTH",
"471 195 OFFCURVE",
"409 59 OFFCURVE",
"259 59 CURVE SMOOTH",
"188 59 OFFCURVE",
"107 94 OFFCURVE",
"107 189 CURVE SMOOTH",
"107 208 OFFCURVE",
"111 226 OFFCURVE",
"118 243 CURVE",
"66 271 LINE",
"54 243 OFFCURVE",
"49 214 OFFCURVE",
"49 187 CURVE SMOOTH",
"49 81 OFFCURVE",
"123 -10 OFFCURVE",
"252 -10 CURVE SMOOTH",
"438 -10 OFFCURVE",
"559 149 OFFCURVE",
"559 328 CURVE SMOOTH",
"559 344 OFFCURVE",
"558 361 OFFCURVE",
"555 377 CURVE",
"583 391 OFFCURVE",
"618 412 OFFCURVE",
"646 412 CURVE SMOOTH",
"689 412 OFFCURVE",
"703 365 OFFCURVE",
"703 308 CURVE SMOOTH",
"703 121 OFFCURVE",
"598 -125 OFFCURVE",
"288 -255 CURVE",
"311 -293 LINE"
);
},
{
closed = 1;
nodes = (
"243 349 OFFCURVE",
"218 371 OFFCURVE",
"218 397 CURVE SMOOTH",
"218 434 OFFCURVE",
"266 478 OFFCURVE",
"344 478 CURVE SMOOTH",
"406 478 OFFCURVE",
"447 445 OFFCURVE",
"463 388 CURVE",
"393 361 OFFCURVE",
"335 349 OFFCURVE",
"299 349 CURVE SMOOTH"
);
}
);
width = 849;
}
);
unicode = AAAF;
},
{
glyphname = uniAAB0;
lastChange = "2017-09-11 14:36:03 +0000";
layers = (
{
layerId = UUID0;
paths = (
{
closed = 1;
nodes = (
"-363 635 OFFCURVE",
"-290 739 OFFCURVE",
"-145 844 CURVE",
"-161 885 LINE",
"-313 783 OFFCURVE",
"-389 688 OFFCURVE",
"-476 688 CURVE SMOOTH",
"-494 688 OFFCURVE",
"-515 701 OFFCURVE",
"-515 726 CURVE SMOOTH",
"-515 766 OFFCURVE",
"-490 785 OFFCURVE",
"-463 803 CURVE",
"-477 825 LINE",
"-530 808 OFFCURVE",
"-578 761 OFFCURVE",
"-578 715 CURVE SMOOTH",
"-578 663 OFFCURVE",
"-536 635 OFFCURVE",
"-484 635 CURVE SMOOTH"
);
}
);
width = 0;
}
);
unicode = AAB0;
},
{
glyphname = uniAAB1;
lastChange = "2017-09-11 14:36:03 +0000";
layers = (
{
layerId = UUID0;
paths = (
{
closed = 1;
nodes = (
"217 15 LINE",
"204 64 OFFCURVE",
"200 125 OFFCURVE",
"200 201 CURVE SMOOTH",
"200 287 OFFCURVE",
"206 360 OFFCURVE",
"206 417 CURVE SMOOTH",
"206 466 OFFCURVE",
"202 507 OFFCURVE",
"184 545 CURVE",
"98 517 LINE",
"113 484 OFFCURVE",
"118 445 OFFCURVE",
"118 402 CURVE SMOOTH",
"118 337 OFFCURVE",
"112 260 OFFCURVE",
"112 195 CURVE SMOOTH",
"112 141 OFFCURVE",
"113 46 OFFCURVE",
"134 -5 CURVE"
);
}
);
width = 315;
}
);
unicode = AAB1;
},
{
glyphname = uniAAB2;
lastChange = "2017-09-11 14:36:03 +0000";
layers = (
{
layerId = UUID0;
paths = (
{
closed = 1;
nodes = (
"-460 654 OFFCURVE",
"-386 715 OFFCURVE",
"-329 780 CURVE",
"-290 704 OFFCURVE",
"-194 672 OFFCURVE",
"-123 662 CURVE",
"-117 694 LINE",
"-231 729 OFFCURVE",
"-256 787 OFFCURVE",
"-269 861 CURVE",
"-345 873 LINE",
"-375 815 OFFCURVE",
"-421 730 OFFCURVE",
"-534 669 CURVE",
"-523 635 LINE"
);
}
);
width = 0;
}
);
unicode = AAB2;
},
{
glyphname = uniAAB3;
lastChange = "2017-09-11 14:36:03 +0000";
layers = (
{
layerId = UUID0;
paths = (
{
closed = 1;
nodes = (
"-436 670 OFFCURVE",
"-379 738 OFFCURVE",
"-362 803 CURVE",
"-291 823 OFFCURVE",
"-227 858 OFFCURVE",
"-158 896 CURVE",
"-177 937 LINE",
"-239 906 OFFCURVE",
"-300 877 OFFCURVE",
"-358 859 CURVE",
"-366 909 OFFCURVE",
"-405 953 OFFCURVE",
"-470 953 CURVE SMOOTH",
"-542 953 OFFCURVE",
"-579 910 OFFCURVE",
"-579 872 CURVE SMOOTH",
"-579 826 OFFCURVE",
"-544 788 OFFCURVE",
"-472 788 CURVE SMOOTH",
"-457 788 OFFCURVE",
"-442 789 OFFCURVE",
"-428 790 CURVE",
"-441 746 OFFCURVE",
"-474 697 OFFCURVE",
"-527 659 CURVE",
"-503 635 LINE"
);
},
{
closed = 1;
nodes = (
"-502 842 OFFCURVE",
"-516 859 OFFCURVE",
"-516 873 CURVE SMOOTH",
"-516 889 OFFCURVE",
"-501 899 OFFCURVE",
"-472 899 CURVE SMOOTH",
"-441 899 OFFCURVE",
"-423 877 OFFCURVE",
"-420 845 CURVE",
"-436 843 OFFCURVE",
"-451 842 OFFCURVE",
"-466 842 CURVE SMOOTH"
);
}
);
width = 0;
}
);
unicode = AAB3;
},
{
glyphname = uniAAB4;
lastChange = "2017-09-11 14:36:03 +0000";
layers = (
{
layerId = UUID0;
paths = (
{
closed = 1;
nodes = (
"-163 -267 OFFCURVE",
"-73 -168 OFFCURVE",
"-73 -102 CURVE SMOOTH",
"-73 -65 OFFCURVE",
"-99 -39 OFFCURVE",
"-152 -39 CURVE SMOOTH",
"-193 -39 OFFCURVE",
"-235 -69 OFFCURVE",
"-264 -95 CURVE",
"-248 -116 LINE",
"-229 -101 OFFCURVE",
"-196 -88 OFFCURVE",
"-177 -88 CURVE SMOOTH",
"-153 -88 OFFCURVE",
"-142 -99 OFFCURVE",
"-142 -116 CURVE SMOOTH",
"-142 -160 OFFCURVE",
"-221 -242 OFFCURVE",
"-354 -260 CURVE",
"-348 -293 LINE"
);
}
);
width = 0;
}
);
unicode = AAB4;
},
{
glyphname = uniAAB5;
lastChange = "2017-09-11 14:36:03 +0000";
layers = (
{
layerId = UUID0;
paths = (
{
closed = 1;
nodes = (
"590 28 LINE",
"579 73 OFFCURVE",
"576 112 OFFCURVE",
"576 150 CURVE SMOOTH",
"576 328 OFFCURVE",
"654 478 OFFCURVE",
"753 587 CURVE",
"727 617 LINE",
"608 497 OFFCURVE",
"488 312 OFFCURVE",
"488 134 CURVE SMOOTH",
"488 131 LINE",
"455 151 OFFCURVE",
"419 162 OFFCURVE",
"383 166 CURVE",
"371 115 LINE",
"430 109 OFFCURVE",
"481 55 OFFCURVE",
"511 -5 CURVE"
);
},
{
closed = 1;
nodes = (
"297 28 LINE",
"286 73 OFFCURVE",
"283 112 OFFCURVE",
"283 150 CURVE SMOOTH",
"283 328 OFFCURVE",
"361 478 OFFCURVE",
"460 587 CURVE",
"434 617 LINE",
"315 497 OFFCURVE",
"195 312 OFFCURVE",
"195 134 CURVE SMOOTH",
"195 131 LINE",
"162 151 OFFCURVE",
"126 162 OFFCURVE",
"90 166 CURVE",
"78 115 LINE",
"137 109 OFFCURVE",
"188 55 OFFCURVE",
"218 -5 CURVE"
);
}
);
width = 802;
}
);
unicode = AAB5;
},
{
glyphname = uniAAB6;
lastChange = "2017-09-11 14:36:03 +0000";
layers = (
{
layerId = UUID0;
paths = (
{
closed = 1;
nodes = (
"402 -20 OFFCURVE",
"456 11 OFFCURVE",
"456 64 CURVE SMOOTH",
"456 132 OFFCURVE",
"373 181 OFFCURVE",
"261 210 CURVE",
"260 225 OFFCURVE",
"260 239 OFFCURVE",
"260 255 CURVE SMOOTH",
"260 567 OFFCURVE",
"443 867 OFFCURVE",
"672 1019 CURVE",
"649 1055 LINE",
"319 838 OFFCURVE",
"172 512 OFFCURVE",
"172 237 CURVE SMOOTH",
"172 229 LINE",
"135 235 OFFCURVE",
"96 239 OFFCURVE",
"57 242 CURVE",
"49 195 LINE",
"98 190 OFFCURVE",
"139 184 OFFCURVE",
"175 177 CURVE",
"192 37 OFFCURVE",
"266 -20 OFFCURVE",
"347 -20 CURVE SMOOTH"
);
},
{
closed = 1;
nodes = (
"302 34 OFFCURVE",
"277 78 OFFCURVE",
"266 155 CURVE",
"373 122 OFFCURVE",
"388 83 OFFCURVE",
"388 61 CURVE SMOOTH",
"388 49 OFFCURVE",
"372 34 OFFCURVE",
"343 34 CURVE SMOOTH"
);
}
);
width = 484;
}
);
unicode = AAB6;
},
{
glyphname = uniAAB7;
lastChange = "2017-09-11 14:36:03 +0000";
layers = (
{
layerId = UUID0;
paths = (
{
closed = 1;
nodes = (
"-508 675 OFFCURVE",
"-306 792 OFFCURVE",
"-148 863 CURVE",
"-164 902 LINE",
"-315 848 OFFCURVE",
"-503 760 OFFCURVE",
"-595 691 CURVE",
"-559 635 LINE"
);
}
);
width = 0;
}
);
unicode = AAB7;
},
{
glyphname = uniAAB8;
lastChange = "2017-09-11 14:36:03 +0000";
layers = (
{
layerId = UUID0;
paths = (
{
closed = 1;
nodes = (
"-524 651 OFFCURVE",
"-441 686 OFFCURVE",
"-356 729 CURVE",
"-341 707 OFFCURVE",
"-326 685 OFFCURVE",
"-311 662 CURVE",
"-264 688 LINE",
"-280 710 OFFCURVE",
"-297 731 OFFCURVE",
"-313 751 CURVE",
"-257 780 OFFCURVE",
"-201 812 OFFCURVE",
"-152 842 CURVE",
"-176 880 LINE",
"-230 852 OFFCURVE",
"-291 823 OFFCURVE",
"-352 796 CURVE",
"-376 824 OFFCURVE",
"-399 849 OFFCURVE",
"-419 868 CURVE",
"-448 846 LINE",
"-432 829 OFFCURVE",
"-413 806 OFFCURVE",
"-392 779 CURVE",
"-487 738 OFFCURVE",
"-571 706 OFFCURVE",
"-606 698 CURVE",
"-584 635 LINE"
);
}
);
width = 0;
}
);
unicode = AAB8;
},
{
glyphname = uniAAB9;
lastChange = "2017-09-11 14:36:03 +0000";
layers = (
{
layerId = UUID0;
paths = (
{
closed = 1;
nodes = (
"297 28 LINE",
"286 73 OFFCURVE",
"283 112 OFFCURVE",
"283 150 CURVE SMOOTH",
"283 328 OFFCURVE",
"361 478 OFFCURVE",
"460 587 CURVE",
"434 617 LINE",
"315 497 OFFCURVE",
"195 312 OFFCURVE",
"195 134 CURVE SMOOTH",
"195 131 LINE",
"162 151 OFFCURVE",
"126 162 OFFCURVE",
"90 166 CURVE",
"78 115 LINE",
"137 109 OFFCURVE",
"188 55 OFFCURVE",
"218 -5 CURVE"
);
}
);
width = 539;
}
);
unicode = AAB9;
},
{
glyphname = uniAABA;
lastChange = "2017-09-11 14:36:03 +0000";
layers = (
{
layerId = UUID0;
paths = (
{
closed = 1;
nodes = (
"380 24 LINE",
"365 57 OFFCURVE",
"360 96 OFFCURVE",
"360 139 CURVE SMOOTH",
"360 204 OFFCURVE",
"366 255 OFFCURVE",
"366 302 CURVE SMOOTH",
"366 353 OFFCURVE",
"360 413 OFFCURVE",
"352 453 CURVE",
"320 446 OFFCURVE",
"263 441 OFFCURVE",
"231 441 CURVE SMOOTH",
"191 441 OFFCURVE",
"146 468 OFFCURVE",
"146 535 CURVE SMOOTH",
"146 650 OFFCURVE",
"234 713 OFFCURVE",
"490 781 CURVE",
"479 811 LINE",
"277 782 OFFCURVE",
"59 684 OFFCURVE",
"59 525 CURVE SMOOTH",
"59 427 OFFCURVE",
"137 373 OFFCURVE",
"223 373 CURVE SMOOTH",
"237 373 OFFCURVE",
"256 373 OFFCURVE",
"275 375 CURVE",
"277 359 OFFCURVE",
"278 340 OFFCURVE",
"278 317 CURVE SMOOTH",
"278 266 OFFCURVE",
"272 201 OFFCURVE",
"272 124 CURVE SMOOTH",
"272 75 OFFCURVE",
"276 34 OFFCURVE",
"294 -4 CURVE"
);
}
);
width = 465;
}
);
unicode = AABA;
},
{
glyphname = uniAABB;
lastChange = "2017-09-11 14:36:03 +0000";
layers = (
{
layerId = UUID0;
paths = (
{
closed = 1;
nodes = (
"417 19 LINE",
"361 82 OFFCURVE",
"341 163 OFFCURVE",
"341 254 CURVE SMOOTH",
"341 406 OFFCURVE",
"393 588 OFFCURVE",
"401 772 CURVE",
"458 792 OFFCURVE",
"518 818 OFFCURVE",
"568 848 CURVE",
"554 890 LINE",
"500 861 OFFCURVE",
"449 839 OFFCURVE",
"402 823 CURVE",
"401 929 OFFCURVE",
"352 1055 OFFCURVE",
"194 1055 CURVE SMOOTH",
"66 1055 OFFCURVE",
"0 966 OFFCURVE",
"0 896 CURVE SMOOTH",
"0 845 OFFCURVE",
"38 736 OFFCURVE",
"229 736 CURVE SMOOTH",
"251 736 OFFCURVE",
"279 740 OFFCURVE",
"312 747 CURVE",
"302 602 OFFCURVE",
"268 462 OFFCURVE",
"268 329 CURVE SMOOTH",
"268 211 OFFCURVE",
"294 98 OFFCURVE",
"387 -10 CURVE"
);
},
{
closed = 1;
nodes = (
"89 790 OFFCURVE",
"73 872 OFFCURVE",
"73 898 CURVE SMOOTH",
"73 935 OFFCURVE",
"108 986 OFFCURVE",
"187 986 CURVE SMOOTH",
"270 986 OFFCURVE",
"314 914 OFFCURVE",
"314 818 CURVE SMOOTH",
"314 799 LINE",
"283 793 OFFCURVE",
"254 790 OFFCURVE",
"229 790 CURVE SMOOTH"
);
}
);
width = 520;
}
);
unicode = AABB;
},
{
glyphname = uniAABC;
lastChange = "2017-09-11 14:36:03 +0000";
layers = (
{
layerId = UUID0;
paths = (
{
closed = 1;
nodes = (
"467 24 LINE",
"452 57 OFFCURVE",
"447 96 OFFCURVE",
"447 139 CURVE SMOOTH",
"447 204 OFFCURVE",
"453 276 OFFCURVE",
"453 341 CURVE SMOOTH",
"453 440 OFFCURVE",
"417 545 OFFCURVE",
"396 563 CURVE",
"362 551 OFFCURVE",
"303 535 OFFCURVE",
"240 535 CURVE SMOOTH",
"168 535 OFFCURVE",
"112 576 OFFCURVE",
"112 670 CURVE SMOOTH",
"112 816 OFFCURVE",
"273 957 OFFCURVE",
"529 1025 CURVE",
"518 1055 LINE",
"316 1026 OFFCURVE",
"24 881 OFFCURVE",
"24 664 CURVE SMOOTH",
"24 548 OFFCURVE",
"106 467 OFFCURVE",
"235 467 CURVE SMOOTH",
"261 467 OFFCURVE",
"305 469 OFFCURVE",
"342 477 CURVE",
"357 457 OFFCURVE",
"365 395 OFFCURVE",
"365 335 CURVE SMOOTH",
"365 250 OFFCURVE",
"359 181 OFFCURVE",
"359 124 CURVE SMOOTH",
"359 75 OFFCURVE",
"363 33 OFFCURVE",
"381 -5 CURVE"
);
}
);
width = 529;
}
);
unicode = AABC;
},
{
glyphname = uniAABD;
lastChange = "2017-09-11 14:36:03 +0000";
layers = (
{
layerId = UUID0;
paths = (
{
closed = 1;
nodes = (
"614 -20 OFFCURVE",
"663 23 OFFCURVE",
"663 62 CURVE SMOOTH",
"663 107 OFFCURVE",
"632 145 OFFCURVE",
"550 145 CURVE SMOOTH",
"520 145 OFFCURVE",
"491 140 OFFCURVE",
"464 133 CURVE",
"462 148 OFFCURVE",
"461 166 OFFCURVE",
"461 185 CURVE SMOOTH",
"461 283 OFFCURVE",
"480 375 OFFCURVE",
"516 460 CURVE",
"563 436 OFFCURVE",
"604 414 OFFCURVE",
"632 394 CURVE",
"653 425 LINE",
"623 449 OFFCURVE",
"583 476 OFFCURVE",
"538 505 CURVE",
"565 556 OFFCURVE",
"599 603 OFFCURVE",
"639 646 CURVE",
"615 676 LINE",
"567 633 OFFCURVE",
"525 585 OFFCURVE",
"491 534 CURVE",
"454 556 OFFCURVE",
"414 579 OFFCURVE",
"374 600 CURVE",
"340 543 LINE",
"381 525 OFFCURVE",
"422 506 OFFCURVE",
"462 487 CURVE",
"403 386 OFFCURVE",
"373 277 OFFCURVE",
"373 181 CURVE SMOOTH",
"373 154 OFFCURVE",
"376 128 OFFCURVE",
"383 104 CURVE",
"332 82 OFFCURVE",
"280 59 OFFCURVE",
"229 59 CURVE SMOOTH",
"197 59 OFFCURVE",
"191 71 OFFCURVE",
"191 96 CURVE SMOOTH",
"191 116 OFFCURVE",
"205 190 OFFCURVE",
"205 244 CURVE SMOOTH",
"205 340 OFFCURVE",
"185 467 OFFCURVE",
"140 545 CURVE",
"59 517 LINE",
"107 444 OFFCURVE",
"117 286 OFFCURVE",
"117 245 CURVE SMOOTH",
"117 208 OFFCURVE",
"104 143 OFFCURVE",
"104 105 CURVE SMOOTH",
"104 29 OFFCURVE",
"151 -10 OFFCURVE",
"218 -10 CURVE SMOOTH",
"267 -10 OFFCURVE",
"352 21 OFFCURVE",
"408 50 CURVE",
"435 8 OFFCURVE",
"479 -20 OFFCURVE",
"542 -20 CURVE SMOOTH"
);
},
{
closed = 1;
nodes = (
"513 34 OFFCURVE",
"491 51 OFFCURVE",
"478 81 CURVE",
"499 87 OFFCURVE",
"521 91 OFFCURVE",
"544 91 CURVE SMOOTH",
"581 91 OFFCURVE",
"589 74 OFFCURVE",
"589 61 CURVE SMOOTH",
"589 44 OFFCURVE",
"574 34 OFFCURVE",
"545 34 CURVE SMOOTH"
);
}
);
width = 753;
}
);
unicode = AABD;
},
{
glyphname = uniAABE;
lastChange = "2017-09-11 14:36:03 +0000";
layers = (
{
layerId = UUID0;
paths = (
{
closed = 1;
nodes = (
"-514 639 OFFCURVE",
"-429 647 OFFCURVE",
"-339 668 CURVE",
"-352 727 LINE",
"-441 701 OFFCURVE",
"-527 678 OFFCURVE",
"-582 671 CURVE",
"-575 635 LINE"
);
},
{
closed = 1;
nodes = (
"-374 787 OFFCURVE",
"-289 796 OFFCURVE",
"-199 816 CURVE",
"-212 875 LINE",
"-301 849 OFFCURVE",
"-387 827 OFFCURVE",
"-441 820 CURVE",
"-435 783 LINE"
);
},
{
closed = 1;
nodes = (
"-234 936 OFFCURVE",
"-149 944 OFFCURVE",
"-59 965 CURVE",
"-72 1024 LINE",
"-161 998 OFFCURVE",
"-247 975 OFFCURVE",
"-301 968 CURVE",
"-295 932 LINE"
);
}
);
width = 0;
}
);
unicode = AABE;
},
{
glyphname = uniAABF;
lastChange = "2017-09-11 14:36:03 +0000";
layers = (
{
layerId = UUID0;
paths = (
{
closed = 1;
nodes = (
"-267 762 OFFCURVE",
"-208 888 OFFCURVE",
"-156 972 CURVE",
"-229 1008 LINE",
"-277 924 OFFCURVE",
"-336 736 OFFCURVE",
"-354 651 CURVE",
"-310 635 LINE"
);
}
);
width = 0;
}
);
unicode = AABF;
},
{
glyphname = uniAAC0;
lastChange = "2017-09-11 14:36:03 +0000";
layers = (
{
layerId = UUID0;
paths = (
{
closed = 1;
nodes = (
"399 -10 OFFCURVE",
"480 38 OFFCURVE",
"531 105 CURVE",
"493 141 LINE",
"451 82 OFFCURVE",
"379 59 OFFCURVE",
"321 59 CURVE SMOOTH",
"218 59 OFFCURVE",
"179 124 OFFCURVE",
"179 207 CURVE SMOOTH",
"179 234 OFFCURVE",
"183 264 OFFCURVE",
"189 293 CURVE",
"239 273 OFFCURVE",
"281 266 OFFCURVE",
"320 266 CURVE SMOOTH",
"462 266 OFFCURVE",
"509 352 OFFCURVE",
"509 419 CURVE SMOOTH",
"509 479 OFFCURVE",
"474 546 OFFCURVE",
"363 546 CURVE SMOOTH",
"254 546 OFFCURVE",
"174 472 OFFCURVE",
"130 377 CURVE",
"113 388 OFFCURVE",
"95 399 OFFCURVE",
"77 412 CURVE",
"49 370 LINE",
"71 355 OFFCURVE",
"92 342 OFFCURVE",
"111 331 CURVE",
"98 290 OFFCURVE",
"91 246 OFFCURVE",
"91 205 CURVE SMOOTH",
"91 83 OFFCURVE",
"164 -10 OFFCURVE",
"305 -10 CURVE SMOOTH"
);
},
{
closed = 1;
nodes = (
"280 315 OFFCURVE",
"245 322 OFFCURVE",
"203 340 CURVE",
"230 414 OFFCURVE",
"279 478 OFFCURVE",
"347 478 CURVE SMOOTH",
"398 478 OFFCURVE",
"421 450 OFFCURVE",
"421 412 CURVE SMOOTH",
"421 364 OFFCURVE",
"387 315 OFFCURVE",
"310 315 CURVE SMOOTH"
);
}
);
width = 590;
}
);
unicode = AAC0;
},
{
glyphname = uniAAC1;
lastChange = "2017-09-11 14:36:03 +0000";
layers = (
{
layerId = UUID0;
paths = (
{
closed = 1;
nodes = (
"-490 676 OFFCURVE",
"-305 792 OFFCURVE",
"-159 862 CURVE",
"-176 898 LINE",
"-258 867 OFFCURVE",
"-350 825 OFFCURVE",
"-432 778 CURVE",
"-428 792 OFFCURVE",
"-426 807 OFFCURVE",
"-426 821 CURVE SMOOTH",
"-426 882 OFFCURVE",
"-462 937 OFFCURVE",
"-551 937 CURVE SMOOTH",
"-589 937 OFFCURVE",
"-617 925 OFFCURVE",
"-635 908 CURVE",
"-593 868 LINE",
"-587 877 OFFCURVE",
"-574 883 OFFCURVE",
"-553 883 CURVE SMOOTH",
"-519 883 OFFCURVE",
"-500 861 OFFCURVE",
"-500 825 CURVE SMOOTH",
"-500 773 OFFCURVE",
"-513 740 OFFCURVE",
"-550 706 CURVE SMOOTH",
"-560 697 OFFCURVE",
"-572 691 OFFCURVE",
"-581 684 CURVE",
"-542 635 LINE"
);
}
);
width = 0;
}
);
unicode = AAC1;
},
{
glyphname = uniAAC2;
lastChange = "2017-09-11 14:36:03 +0000";
layers = (
{
layerId = UUID0;
paths = (
{
closed = 1;
nodes = (
"207 -130 OFFCURVE",
"341 110 OFFCURVE",
"350 293 CURVE",
"370 290 OFFCURVE",
"392 288 OFFCURVE",
"413 286 CURVE",
"417 334 LINE",
"392 337 OFFCURVE",
"369 340 OFFCURVE",
"348 344 CURVE",
"336 463 OFFCURVE",
"258 546 OFFCURVE",
"143 546 CURVE SMOOTH",
"87 546 OFFCURVE",
"33 515 OFFCURVE",
"33 462 CURVE SMOOTH",
"33 387 OFFCURVE",
"133 336 OFFCURVE",
"262 308 CURVE",
"261 156 OFFCURVE",
"214 -53 OFFCURVE",
"-59 -257 CURVE",
"-35 -293 LINE"
);
},
{
closed = 1;
nodes = (
"120 397 OFFCURVE",
"102 442 OFFCURVE",
"102 466 CURVE SMOOTH",
"102 477 OFFCURVE",
"117 492 OFFCURVE",
"146 492 CURVE SMOOTH",
"205 492 OFFCURVE",
"246 442 OFFCURVE",
"258 362 CURVE"
);
}
);
width = 417;
}
);
unicode = AAC2;
},
{
glyphname = uniAADB;
lastChange = "2017-09-11 14:36:03 +0000";
layers = (
{
layerId = UUID0;
paths = (
{
closed = 1;
nodes = (
"773 -10 OFFCURVE",
"825 177 OFFCURVE",
"839 344 CURVE",
"884 348 OFFCURVE",
"931 351 OFFCURVE",
"981 352 CURVE",
"982 395 LINE",
"935 395 OFFCURVE",
"889 394 OFFCURVE",
"844 392 CURVE",
"866 588 OFFCURVE",
"897 694 OFFCURVE",
"1017 810 CURVE",
"994 840 LINE",
"849 710 OFFCURVE",
"774 560 OFFCURVE",
"755 387 CURVE",
"688 382 OFFCURVE",
"624 374 OFFCURVE",
"560 362 CURVE",
"561 375 OFFCURVE",
"562 387 OFFCURVE",
"562 397 CURVE SMOOTH",
"562 487 OFFCURVE",
"530 546 OFFCURVE",
"452 546 CURVE SMOOTH",
"309 546 OFFCURVE",
"202 409 OFFCURVE",
"146 221 CURVE",
"88 190 OFFCURVE",
"31 155 OFFCURVE",
"-27 114 CURVE",
"-3 37 LINE",
"35 65 OFFCURVE",
"76 94 OFFCURVE",
"123 123 CURVE",
"115 83 OFFCURVE",
"110 41 OFFCURVE",
"107 -2 CURVE",
"203 24 LINE",
"208 73 OFFCURVE",
"213 127 OFFCURVE",
"222 179 CURVE",
"291 215 OFFCURVE",
"371 248 OFFCURVE",
"464 276 CURVE",
"461 243 OFFCURVE",
"458 209 OFFCURVE",
"458 179 CURVE SMOOTH",
"458 68 OFFCURVE",
"520 -10 OFFCURVE",
"616 -10 CURVE SMOOTH"
);
},
{
closed = 1;
nodes = (
"270 384 OFFCURVE",
"323 478 OFFCURVE",
"425 478 CURVE SMOOTH",
"467 478 OFFCURVE",
"474 448 OFFCURVE",
"474 417 CURVE SMOOTH",
"474 394 OFFCURVE",
"472 369 OFFCURVE",
"470 343 CURVE",
"392 324 OFFCURVE",
"315 299 OFFCURVE",
"240 266 CURVE"
);
},
{
closed = 1;
nodes = (
"582 59 OFFCURVE",
"546 109 OFFCURVE",
"546 185 CURVE SMOOTH",
"546 225 OFFCURVE",
"550 264 OFFCURVE",
"553 300 CURVE",
"614 314 OFFCURVE",
"679 326 OFFCURVE",
"750 335 CURVE",
"742 198 OFFCURVE",
"727 59 OFFCURVE",
"634 59 CURVE SMOOTH"
);
}
);
width = 929;
}
);
unicode = AADB;
},
{
glyphname = uniAADC;
lastChange = "2017-09-11 14:36:03 +0000";
layers = (
{
layerId = UUID0;
paths = (
{
closed = 1;
nodes = (
"745 -10 OFFCURVE",
"817 116 OFFCURVE",
"838 333 CURVE SMOOTH",
"861 568 OFFCURVE",
"885 683 OFFCURVE",
"1017 810 CURVE",
"994 840 LINE",
"837 700 OFFCURVE",
"763 536 OFFCURVE",
"751 345 CURVE SMOOTH",
"742 205 OFFCURVE",
"729 59 OFFCURVE",
"634 59 CURVE SMOOTH",
"582 59 OFFCURVE",
"546 109 OFFCURVE",
"546 185 CURVE SMOOTH",
"546 268 OFFCURVE",
"562 351 OFFCURVE",
"562 397 CURVE SMOOTH",
"562 487 OFFCURVE",
"530 546 OFFCURVE",
"452 546 CURVE SMOOTH",
"254 546 OFFCURVE",
"120 292 OFFCURVE",
"107 -2 CURVE",
"203 24 LINE",
"221 220 OFFCURVE",
"256 478 OFFCURVE",
"425 478 CURVE SMOOTH",
"467 478 OFFCURVE",
"474 448 OFFCURVE",
"474 417 CURVE SMOOTH",
"474 347 OFFCURVE",
"458 254 OFFCURVE",
"458 179 CURVE SMOOTH",
"458 68 OFFCURVE",
"520 -10 OFFCURVE",
"616 -10 CURVE SMOOTH"
);
}
);
width = 929;
}
);
unicode = AADC;
},
{
glyphname = uniAADD;
lastChange = "2017-09-11 14:36:03 +0000";
layers = (
{
layerId = UUID0;
paths = (
{
closed = 1;
nodes = (
"623 -10 OFFCURVE",
"659 46 OFFCURVE",
"659 91 CURVE SMOOTH",
"659 147 OFFCURVE",
"600 193 OFFCURVE",
"523 239 CURVE",
"537 302 OFFCURVE",
"551 368 OFFCURVE",
"551 419 CURVE SMOOTH",
"551 480 OFFCURVE",
"507 546 OFFCURVE",
"416 546 CURVE SMOOTH",
"341 546 OFFCURVE",
"275 509 OFFCURVE",
"221 446 CURVE",
"183 490 OFFCURVE",
"158 542 OFFCURVE",
"158 604 CURVE SMOOTH",
"158 727 OFFCURVE",
"260 885 OFFCURVE",
"511 1019 CURVE",
"488 1055 LINE",
"205 903 OFFCURVE",
"70 737 OFFCURVE",
"70 602 CURVE SMOOTH",
"70 509 OFFCURVE",
"113 438 OFFCURVE",
"175 381 CURVE",
"116 283 OFFCURVE",
"77 149 OFFCURVE",
"59 -2 CURVE",
"154 24 LINE",
"171 139 OFFCURVE",
"189 254 OFFCURVE",
"225 339 CURVE",
"293 290 OFFCURVE",
"371 251 OFFCURVE",
"439 216 CURVE",
"433 178 OFFCURVE",
"428 141 OFFCURVE",
"428 105 CURVE SMOOTH",
"428 41 OFFCURVE",
"462 -10 OFFCURVE",
"541 -10 CURVE SMOOTH"
);
},
{
closed = 1;
nodes = (
"521 44 OFFCURVE",
"501 62 OFFCURVE",
"501 93 CURVE SMOOTH",
"501 116 OFFCURVE",
"505 145 OFFCURVE",
"511 175 CURVE",
"559 145 OFFCURVE",
"591 116 OFFCURVE",
"591 81 CURVE SMOOTH",
"591 58 OFFCURVE",
"577 44 OFFCURVE",
"543 44 CURVE SMOOTH"
);
},
{
closed = 1;
nodes = (
"384 318 OFFCURVE",
"316 357 OFFCURVE",
"261 405 CURVE",
"294 451 OFFCURVE",
"337 478 OFFCURVE",
"396 478 CURVE SMOOTH",
"431 478 OFFCURVE",
"463 443 OFFCURVE",
"463 412 CURVE SMOOTH",
"463 369 OFFCURVE",
"457 325 OFFCURVE",
"449 281 CURVE"
);
}
);
width = 717;
}
);
unicode = AADD;
},
{
glyphname = uniAADE;
lastChange = "2017-09-11 14:36:03 +0000";
layers = (
{
layerId = UUID0;
paths = (
{
closed = 1;
nodes = (
"222 827 OFFCURVE",
"410 922 OFFCURVE",
"580 922 CURVE SMOOTH",
"707 922 OFFCURVE",
"759 828 OFFCURVE",
"805 736 CURVE",
"864 835 OFFCURVE",
"976 953 OFFCURVE",
"1215 953 CURVE SMOOTH",
"1324 953 OFFCURVE",
"1438 903 OFFCURVE",
"1532 736 CURVE",
"1621 851 LINE",
"1542 952 OFFCURVE",
"1388 1021 OFFCURVE",
"1222 1021 CURVE SMOOTH",
"1016 1021 OFFCURVE",
"927 956 OFFCURVE",
"844 899 CURVE",
"757 980 OFFCURVE",
"665 991 OFFCURVE",
"583 991 CURVE SMOOTH",
"399 991 OFFCURVE",
"169 849 OFFCURVE",
"100 785 CURVE",
"133 734 LINE"
);
},
{
closed = 1;
nodes = (
"347 -159 OFFCURVE",
"366 -154 OFFCURVE",
"385 -146 CURVE",
"375 -98 LINE",
"363 -103 OFFCURVE",
"351 -104 OFFCURVE",
"337 -104 CURVE SMOOTH",
"303 -104 OFFCURVE",
"265 -83 OFFCURVE",
"233 -47 CURVE",
"190 -109 LINE",
"222 -136 OFFCURVE",
"267 -159 OFFCURVE",
"331 -159 CURVE SMOOTH"
);
},
{
closed = 1;
nodes = (
"273 22 LINE",
"265 59 OFFCURVE",
"262 90 OFFCURVE",
"262 120 CURVE SMOOTH",
"262 262 OFFCURVE",
"325 382 OFFCURVE",
"404 470 CURVE",
"382 494 LINE",
"288 397 OFFCURVE",
"191 249 OFFCURVE",
"191 107 CURVE SMOOTH",
"191 105 LINE",
"166 121 OFFCURVE",
"136 130 OFFCURVE",
"107 133 CURVE",
"98 92 LINE",
"145 87 OFFCURVE",
"187 44 OFFCURVE",
"210 -4 CURVE"
);
},
{
closed = 1;
nodes = (
"373 -293 OFFCURVE",
"444 -269 OFFCURVE",
"503 -226 CURVE",
"563 -274 OFFCURVE",
"635 -293 OFFCURVE",
"711 -293 CURVE SMOOTH",
"776 -293 OFFCURVE",
"858 -267 OFFCURVE",
"897 -226 CURVE",
"966 -281 OFFCURVE",
"1059 -293 OFFCURVE",
"1158 -293 CURVE SMOOTH",
"1288 -293 OFFCURVE",
"1407 -218 OFFCURVE",
"1468 -154 CURVE",
"1435 -104 LINE",
"1347 -194 OFFCURVE",
"1246 -225 OFFCURVE",
"1161 -225 CURVE SMOOTH",
"1074 -225 OFFCURVE",
"980 -183 OFFCURVE",
"935 -91 CURVE",
"865 -190 OFFCURVE",
"819 -225 OFFCURVE",
"732 -225 CURVE SMOOTH",
"662 -225 OFFCURVE",
"597 -170 OFFCURVE",
"534 -91 CURVE",
"465 -190 OFFCURVE",
"410 -225 OFFCURVE",
"331 -225 CURVE SMOOTH",
"259 -225 OFFCURVE",
"175 -180 OFFCURVE",
"118 -106 CURVE",
"49 -195 LINE",
"101 -243 OFFCURVE",
"183 -293 OFFCURVE",
"321 -293 CURVE SMOOTH"
);
},
{
closed = 1;
nodes = (
"787 -159 OFFCURVE",
"805 -154 OFFCURVE",
"824 -146 CURVE",
"814 -98 LINE",
"802 -103 OFFCURVE",
"790 -104 OFFCURVE",
"776 -104 CURVE SMOOTH",
"743 -104 OFFCURVE",
"705 -83 OFFCURVE",
"672 -47 CURVE",
"630 -109 LINE",
"662 -136 OFFCURVE",
"707 -159 OFFCURVE",
"771 -159 CURVE SMOOTH"
);
},
{
closed = 1;
nodes = (
"639 -8 OFFCURVE",
"685 54 OFFCURVE",
"714 149 CURVE SMOOTH",
"743 244 OFFCURVE",
"773 381 OFFCURVE",
"832 381 CURVE SMOOTH",
"894 381 OFFCURVE",
"921 294 OFFCURVE",
"921 208 CURVE SMOOTH",
"921 122 OFFCURVE",
"891 35 OFFCURVE",
"843 35 CURVE SMOOTH",
"813 35 OFFCURVE",
"792 58 OFFCURVE",
"777 77 CURVE",
"751 61 LINE",
"764 36 OFFCURVE",
"800 -8 OFFCURVE",
"856 -8 CURVE SMOOTH",
"945 -8 OFFCURVE",
"991 102 OFFCURVE",
"991 212 CURVE SMOOTH",
"991 324 OFFCURVE",
"944 436 OFFCURVE",
"846 436 CURVE SMOOTH",
"756 436 OFFCURVE",
"714 352 OFFCURVE",
"681 228 CURVE SMOOTH",
"663 161 OFFCURVE",
"635 47 OFFCURVE",
"582 47 CURVE SMOOTH",
"541 47 OFFCURVE",
"531 100 OFFCURVE",
"531 161 CURVE SMOOTH",
"531 229 OFFCURVE",
"537 288 OFFCURVE",
"537 334 CURVE SMOOTH",
"537 373 OFFCURVE",
"533 406 OFFCURVE",
"519 436 CURVE",
"450 413 LINE",
"462 387 OFFCURVE",
"466 356 OFFCURVE",
"466 322 CURVE SMOOTH",
"466 270 OFFCURVE",
"461 208 OFFCURVE",
"461 156 CURVE SMOOTH",
"461 67 OFFCURVE",
"490 -8 OFFCURVE",
"567 -8 CURVE SMOOTH"
);
},
{
closed = 1;
nodes = (
"199 652 OFFCURVE",
"228 665 OFFCURVE",
"259 665 CURVE SMOOTH",
"290 665 OFFCURVE",
"318 653 OFFCURVE",
"342 638 CURVE",
"363 714 LINE",
"338 724 OFFCURVE",
"312 729 OFFCURVE",
"285 729 CURVE SMOOTH",
"234 729 OFFCURVE",
"187 709 OFFCURVE",
"153 669 CURVE",
"177 625 LINE"
);
},
{
closed = 1;
nodes = (
"1226 -159 OFFCURVE",
"1245 -154 OFFCURVE",
"1264 -146 CURVE",
"1253 -98 LINE",
"1242 -103 OFFCURVE",
"1229 -104 OFFCURVE",
"1216 -104 CURVE SMOOTH",
"1182 -104 OFFCURVE",
"1144 -83 OFFCURVE",
"1112 -47 CURVE",
"1069 -109 LINE",
"1101 -136 OFFCURVE",
"1146 -159 OFFCURVE",
"1210 -159 CURVE SMOOTH"
);
},
{
closed = 1;
nodes = (
"608 529 OFFCURVE",
"852 594 OFFCURVE",
"982 621 CURVE",
"976 655 LINE",
"836 642 OFFCURVE",
"633 602 OFFCURVE",
"526 555 CURVE",
"552 499 LINE"
);
},
{
closed = 1;
nodes = (
"494 769 OFFCURVE",
"522 782 OFFCURVE",
"553 782 CURVE SMOOTH",
"584 782 OFFCURVE",
"612 770 OFFCURVE",
"636 755 CURVE",
"658 831 LINE",
"632 841 OFFCURVE",
"606 846 OFFCURVE",
"580 846 CURVE SMOOTH",
"529 846 OFFCURVE",
"481 826 OFFCURVE",
"447 786 CURVE",
"472 742 LINE"
);
},
{
closed = 1;
nodes = (
"1200 120 OFFCURVE",
"1143 331 OFFCURVE",
"1131 433 CURVE",
"1208 492 LINE SMOOTH",
"1241 517 OFFCURVE",
"1261 524 OFFCURVE",
"1272 524 CURVE SMOOTH",
"1291 524 OFFCURVE",
"1311 506 OFFCURVE",
"1328 489 CURVE SMOOTH",
"1371 444 LINE",
"1307 342 OFFCURVE",
"1256 227 OFFCURVE",
"1219 88 CURVE"
);
},
{
closed = 1;
nodes = (
"1248 -8 OFFCURVE",
"1260 17 OFFCURVE",
"1271 50 CURVE SMOOTH",
"1301 141 OFFCURVE",
"1332 262 OFFCURVE",
"1411 401 CURVE",
"1456 354 LINE",
"1480 375 LINE",
"1431 435 LINE",
"1472 502 OFFCURVE",
"1527 583 OFFCURVE",
"1600 666 CURVE",
"1576 702 LINE",
"1507 631 OFFCURVE",
"1446 556 OFFCURVE",
"1395 480 CURVE",
"1339 548 LINE SMOOTH",
"1324 567 OFFCURVE",
"1299 597 OFFCURVE",
"1278 597 CURVE SMOOTH",
"1263 597 OFFCURVE",
"1237 577 OFFCURVE",
"1220 562 CURVE SMOOTH",
"1015 385 LINE",
"1034 359 LINE",
"1071 388 LINE",
"1089 280 OFFCURVE",
"1144 72 OFFCURVE",
"1179 14 CURVE SMOOTH",
"1190 -4 OFFCURVE",
"1201 -8 OFFCURVE",
"1219 -8 CURVE SMOOTH"
);
},
{
closed = 1;
nodes = (
"955 766 OFFCURVE",
"995 781 OFFCURVE",
"1039 781 CURVE SMOOTH",
"1054 781 OFFCURVE",
"1069 779 OFFCURVE",
"1085 776 CURVE",
"1092 854 LINE",
"1085 855 OFFCURVE",
"1077 855 OFFCURVE",
"1070 855 CURVE SMOOTH",
"994 855 OFFCURVE",
"931 814 OFFCURVE",
"894 768 CURVE",
"925 729 LINE"
);
},
{
closed = 1;
nodes = (
"1233 712 OFFCURVE",
"1272 727 OFFCURVE",
"1316 727 CURVE SMOOTH",
"1332 727 OFFCURVE",
"1347 725 OFFCURVE",
"1363 722 CURVE",
"1370 800 LINE",
"1363 801 OFFCURVE",
"1355 801 OFFCURVE",
"1348 801 CURVE SMOOTH",
"1272 801 OFFCURVE",
"1209 760 OFFCURVE",
"1171 714 CURVE",
"1203 675 LINE"
);
}
);
width = 1670;
}
);
unicode = AADE;
},
{
glyphname = uniAADF;
lastChange = "2017-09-11 14:36:03 +0000";
layers = (
{
layerId = UUID0;
paths = (
{
closed = 1;
nodes = (
"634 -10 OFFCURVE",
"676 35 OFFCURVE",
"676 80 CURVE SMOOTH",
"676 126 OFFCURVE",
"635 163 OFFCURVE",
"554 163 CURVE SMOOTH",
"526 163 OFFCURVE",
"501 162 OFFCURVE",
"477 159 CURVE",
"470 195 OFFCURVE",
"466 238 OFFCURVE",
"465 283 CURVE",
"595 309 OFFCURVE",
"722 342 OFFCURVE",
"722 435 CURVE SMOOTH",
"722 499 OFFCURVE",
"611 526 OFFCURVE",
"483 538 CURVE",
"490 580 OFFCURVE",
"498 617 OFFCURVE",
"506 648 CURVE",
"479 687 LINE",
"450 670 OFFCURVE",
"416 668 OFFCURVE",
"399 668 CURVE SMOOTH",
"352 668 OFFCURVE",
"298 688 OFFCURVE",
"298 774 CURVE SMOOTH",
"298 878 OFFCURVE",
"378 957 OFFCURVE",
"634 1025 CURVE",
"623 1055 LINE",
"421 1026 OFFCURVE",
"209 920 OFFCURVE",
"209 768 CURVE SMOOTH",
"209 685 OFFCURVE",
"270 601 OFFCURVE",
"395 601 CURVE SMOOTH",
"412 601 OFFCURVE",
"428 603 OFFCURVE",
"441 607 CURVE",
"434 587 OFFCURVE",
"426 566 OFFCURVE",
"419 542 CURVE",
"371 545 OFFCURVE",
"322 546 OFFCURVE",
"278 546 CURVE SMOOTH",
"232 546 OFFCURVE",
"191 545 OFFCURVE",
"161 545 CURVE",
"151 476 LINE",
"174 477 OFFCURVE",
"204 478 OFFCURVE",
"237 478 CURVE SMOOTH",
"288 478 OFFCURVE",
"346 476 OFFCURVE",
"402 473 CURVE",
"392 427 OFFCURVE",
"383 377 OFFCURVE",
"379 329 CURVE",
"241 300 OFFCURVE",
"98 261 OFFCURVE",
"98 158 CURVE SMOOTH",
"98 98 OFFCURVE",
"160 61 OFFCURVE",
"232 61 CURVE SMOOTH",
"294 61 OFFCURVE",
"351 77 OFFCURVE",
"410 90 CURVE",
"438 30 OFFCURVE",
"487 -10 OFFCURVE",
"562 -10 CURVE SMOOTH"
);
},
{
closed = 1;
nodes = (
"202 129 OFFCURVE",
"186 143 OFFCURVE",
"186 165 CURVE SMOOTH",
"186 222 OFFCURVE",
"273 245 OFFCURVE",
"377 266 CURVE",
"377 264 LINE SMOOTH",
"377 223 OFFCURVE",
"381 183 OFFCURVE",
"390 147 CURVE",
"337 138 OFFCURVE",
"288 129 OFFCURVE",
"236 129 CURVE SMOOTH"
);
},
{
closed = 1;
nodes = (
"531 44 OFFCURVE",
"507 67 OFFCURVE",
"492 106 CURVE",
"510 108 OFFCURVE",
"528 109 OFFCURVE",
"548 109 CURVE SMOOTH",
"584 109 OFFCURVE",
"603 94 OFFCURVE",
"603 81 CURVE SMOOTH",
"603 61 OFFCURVE",
"594 44 OFFCURVE",
"565 44 CURVE SMOOTH"
);
},
{
closed = 1;
nodes = (
"466 386 OFFCURVE",
"470 428 OFFCURVE",
"474 468 CURVE",
"564 459 OFFCURVE",
"634 445 OFFCURVE",
"634 423 CURVE SMOOTH",
"634 383 OFFCURVE",
"559 364 OFFCURVE",
"465 346 CURVE"
);
}
);
width = 820;
}
);
unicode = AADF;
},
{
glyphname = uni25CC;
lastChange = "2017-09-11 14:36:03 +0000";
layers = (
{
layerId = UUID0;
paths = (
{
closed = 1;
nodes = (
"199 522 OFFCURVE",
"187 510 OFFCURVE",
"187 496 CURVE SMOOTH",
"187 482 OFFCURVE",
"199 470 OFFCURVE",
"213 470 CURVE SMOOTH",
"227 470 OFFCURVE",
"239 482 OFFCURVE",
"239 496 CURVE SMOOTH",
"239 510 OFFCURVE",
"227 522 OFFCURVE",
"213 522 CURVE SMOOTH"
);
},
{
closed = 1;
nodes = (
"367 522 OFFCURVE",
"355 510 OFFCURVE",
"355 496 CURVE SMOOTH",
"355 482 OFFCURVE",
"367 470 OFFCURVE",
"381 470 CURVE SMOOTH",
"395 470 OFFCURVE",
"407 482 OFFCURVE",
"407 496 CURVE SMOOTH",
"407 510 OFFCURVE",
"395 522 OFFCURVE",
"381 522 CURVE SMOOTH"
);
},
{
closed = 1;
nodes = (
"199 112 OFFCURVE",
"187 100 OFFCURVE",
"187 86 CURVE SMOOTH",
"187 72 OFFCURVE",
"199 60 OFFCURVE",
"213 60 CURVE SMOOTH",
"227 60 OFFCURVE",
"239 72 OFFCURVE",
"239 86 CURVE SMOOTH",
"239 100 OFFCURVE",
"227 112 OFFCURVE",
"213 112 CURVE SMOOTH"
);
},
{
closed = 1;
nodes = (
"367 112 OFFCURVE",
"355 100 OFFCURVE",
"355 86 CURVE SMOOTH",
"355 72 OFFCURVE",
"367 60 OFFCURVE",
"381 60 CURVE SMOOTH",
"395 60 OFFCURVE",
"407 72 OFFCURVE",
"407 86 CURVE SMOOTH",
"407 100 OFFCURVE",
"395 112 OFFCURVE",
"381 112 CURVE SMOOTH"
);
},
{
closed = 1;
nodes = (
"283 540 OFFCURVE",
"271 528 OFFCURVE",
"271 514 CURVE SMOOTH",
"271 500 OFFCURVE",
"283 488 OFFCURVE",
"297 488 CURVE SMOOTH",
"311 488 OFFCURVE",
"323 500 OFFCURVE",
"323 514 CURVE SMOOTH",
"323 528 OFFCURVE",
"311 540 OFFCURVE",
"297 540 CURVE SMOOTH"
);
},
{
closed = 1;
nodes = (
"283 94 OFFCURVE",
"271 82 OFFCURVE",
"271 68 CURVE SMOOTH",
"271 54 OFFCURVE",
"283 42 OFFCURVE",
"297 42 CURVE SMOOTH",
"311 42 OFFCURVE",
"323 54 OFFCURVE",
"323 68 CURVE SMOOTH",
"323 82 OFFCURVE",
"311 94 OFFCURVE",
"297 94 CURVE SMOOTH"
);
},
{
closed = 1;
nodes = (
"48 277 OFFCURVE",
"60 265 OFFCURVE",
"74 265 CURVE SMOOTH",
"88 265 OFFCURVE",
"100 277 OFFCURVE",
"100 291 CURVE SMOOTH",
"100 305 OFFCURVE",
"88 317 OFFCURVE",
"74 317 CURVE SMOOTH",
"60 317 OFFCURVE",
"48 305 OFFCURVE",
"48 291 CURVE SMOOTH"
);
},
{
closed = 1;
nodes = (
"494 277 OFFCURVE",
"506 265 OFFCURVE",
"520 265 CURVE SMOOTH",
"534 265 OFFCURVE",
"546 277 OFFCURVE",
"546 291 CURVE SMOOTH",
"546 305 OFFCURVE",
"534 317 OFFCURVE",
"520 317 CURVE SMOOTH",
"506 317 OFFCURVE",
"494 305 OFFCURVE",
"494 291 CURVE SMOOTH"
);
},
{
closed = 1;
nodes = (
"113 119 OFFCURVE",
"125 107 OFFCURVE",
"139 107 CURVE SMOOTH",
"153 107 OFFCURVE",
"165 119 OFFCURVE",
"165 133 CURVE SMOOTH",
"165 147 OFFCURVE",
"153 159 OFFCURVE",
"139 159 CURVE SMOOTH",
"125 159 OFFCURVE",
"113 147 OFFCURVE",
"113 133 CURVE SMOOTH"
);
},
{
closed = 1;
nodes = (
"113 435 OFFCURVE",
"125 423 OFFCURVE",
"139 423 CURVE SMOOTH",
"153 423 OFFCURVE",
"165 435 OFFCURVE",
"165 449 CURVE SMOOTH",
"165 463 OFFCURVE",
"153 475 OFFCURVE",
"139 475 CURVE SMOOTH",
"125 475 OFFCURVE",
"113 463 OFFCURVE",
"113 449 CURVE SMOOTH"
);
},
{
closed = 1;
nodes = (
"429 119 OFFCURVE",
"441 107 OFFCURVE",
"455 107 CURVE SMOOTH",
"469 107 OFFCURVE",
"481 119 OFFCURVE",
"481 133 CURVE SMOOTH",
"481 147 OFFCURVE",
"469 159 OFFCURVE",
"455 159 CURVE SMOOTH",
"441 159 OFFCURVE",
"429 147 OFFCURVE",
"429 133 CURVE SMOOTH"
);
},
{
closed = 1;
nodes = (
"429 435 OFFCURVE",
"441 423 OFFCURVE",
"455 423 CURVE SMOOTH",
"469 423 OFFCURVE",
"481 435 OFFCURVE",
"481 449 CURVE SMOOTH",
"481 463 OFFCURVE",
"469 475 OFFCURVE",
"455 475 CURVE SMOOTH",
"441 475 OFFCURVE",
"429 463 OFFCURVE",
"429 449 CURVE SMOOTH"
);
},
{
closed = 1;
nodes = (
"66 193 OFFCURVE",
"78 181 OFFCURVE",
"92 181 CURVE SMOOTH",
"106 181 OFFCURVE",
"118 193 OFFCURVE",
"118 207 CURVE SMOOTH",
"118 221 OFFCURVE",
"106 233 OFFCURVE",
"92 233 CURVE SMOOTH",
"78 233 OFFCURVE",
"66 221 OFFCURVE",
"66 207 CURVE SMOOTH"
);
},
{
closed = 1;
nodes = (
"66 361 OFFCURVE",
"78 349 OFFCURVE",
"92 349 CURVE SMOOTH",
"106 349 OFFCURVE",
"118 361 OFFCURVE",
"118 375 CURVE SMOOTH",
"118 389 OFFCURVE",
"106 401 OFFCURVE",
"92 401 CURVE SMOOTH",
"78 401 OFFCURVE",
"66 389 OFFCURVE",
"66 375 CURVE SMOOTH"
);
},
{
closed = 1;
nodes = (
"476 193 OFFCURVE",
"488 181 OFFCURVE",
"502 181 CURVE SMOOTH",
"516 181 OFFCURVE",
"528 193 OFFCURVE",
"528 207 CURVE SMOOTH",
"528 221 OFFCURVE",
"516 233 OFFCURVE",
"502 233 CURVE SMOOTH",
"488 233 OFFCURVE",
"476 221 OFFCURVE",
"476 207 CURVE SMOOTH"
);
},
{
closed = 1;
nodes = (
"476 361 OFFCURVE",
"488 349 OFFCURVE",
"502 349 CURVE SMOOTH",
"516 349 OFFCURVE",
"528 361 OFFCURVE",
"528 375 CURVE SMOOTH",
"528 389 OFFCURVE",
"516 401 OFFCURVE",
"502 401 CURVE SMOOTH",
"488 401 OFFCURVE",
"476 389 OFFCURVE",
"476 375 CURVE SMOOTH"
);
}
